<?xml version="1.0" encoding="utf-8"?>
<svg version="1.1" xmlns:xlink="http://www.w3.org/1999/xlink" width="12px" height="4px" xmlns="http://www.w3.org/2000/svg">
  <g transform="matrix(1 0 0 1 -651 -190 )">
    <path d="M 9.55200000000004 3.94666666666666  L 9.55200000000004 2.368  L 11.9200000000001 2.368  L 11.9200000000001 3.94666666666666  L 9.55200000000004 3.94666666666666  Z M 4.81599999999998 1.57866666666666  L 4.81599999999998 0  L 7.18400000000002 0  L 7.18400000000002 1.57866666666666  L 4.81599999999998 1.57866666666666  Z M 9.55200000000004 1.57866666666666  L 9.55200000000004 0  L 11.9200000000001 0  L 11.9200000000001 1.57866666666666  L 9.55200000000004 1.57866666666666  Z M 0.0693333333333612 3.94666666666666  L 0.0693333333333612 2.368  L 2.43733333333339 2.368  L 2.43733333333339 3.94666666666666  L 0.0693333333333612 3.94666666666666  Z M 4.81599999999998 3.94666666666666  L 4.81599999999998 2.368  L 7.18400000000002 2.368  L 7.18400000000002 3.94666666666666  L 4.81599999999998 3.94666666666666  Z M 0.0693333333333612 1.57866666666666  L 0.0693333333333612 0  L 2.43733333333339 0  L 2.43733333333339 1.57866666666666  L 0.0693333333333612 1.57866666666666  Z " fill-rule="nonzero" fill="#d7d7d7" stroke="none" transform="matrix(1 0 0 1 651 190 )" />
  </g>
</svg>