<?xml version="1.0" encoding="utf-8"?>
<svg version="1.1" xmlns:xlink="http://www.w3.org/1999/xlink" width="19px" height="11px" xmlns="http://www.w3.org/2000/svg">
  <g transform="matrix(1 0 0 1 -648 -184 )">
    <path d="M 19 0.804320000000018  L 14.236 0.804320000000018  L 14.236 0.0228800000000149  L 13.052 0.0228800000000149  L 13.052 0.804320000000018  L 5.94800000000001 0.804320000000018  L 5.94800000000001 0.0228800000000149  L 4.76399999999997 0.0228800000000149  L 4.76399999999997 0.804320000000018  L 0 0.804320000000018  L 0 11  L 19 11  L 19 0.804320000000018  Z M 17.7986666666666 4.71856  L 17.7986666666666 10.27312  L 1.20133333333338 10.27312  L 1.20133333333338 4.71856  L 17.7986666666666 4.71856  Z M 17.788 3.93712000000002  L 17.7986666666666 4  L 1.20133333333338 4  L 1.20133333333338 1.50832  L 4.75333333333337 1.50832  L 4.75333333333337 2.3672  L 5.93733333333327 2.3672  L 5.93733333333327 1.50832  L 13.052 1.50832  L 13.052 2.3672  L 14.236 2.3672  L 14.236 1.50832  L 17.788 1.50832  L 17.788 3.93712000000002  Z " fill-rule="nonzero" fill="#d7d7d7" stroke="none" transform="matrix(1 0 0 1 648 184 )" />
  </g>
</svg>