<?xml version="1.0" encoding="utf-8"?>
<svg version="1.1" xmlns:xlink="http://www.w3.org/1999/xlink" width="12px" height="18px" xmlns="http://www.w3.org/2000/svg">
  <g transform="matrix(1 0 0 1 -517 -739 )">
    <path d="M 11.6041666666666 0.333984375  C 11.8680555555555 0.556640625  12 0.8203125  12 1.125  L 12 16.875  C 12 17.1796875  11.8680555555555 17.443359375  11.6041666666666 17.666015625  C 11.3402777777778 17.888671875  11.0277777777777 18  10.6666666666666 18  C 10.3055555555555 18  9.99305555555554 17.888671875  9.72916666666663 17.666015625  L 0.395833333333371 9.791015625  C 0.131944444444457 9.568359375  0 9.3046875  0 9  C 0 8.6953125  0.131944444444457 8.431640625  0.395833333333371 8.208984375  L 9.72916666666663 0.333984375  C 9.99305555555554 0.111328125  10.3055555555555 0  10.6666666666666 0  C 11.0277777777777 0  11.3402777777778 0.111328125  11.6041666666666 0.333984375  Z " fill-rule="nonzero" fill="#333333" stroke="none" transform="matrix(1 0 0 1 517 739 )" />
  </g>
</svg>