<?xml version="1.0" encoding="utf-8"?>
<svg version="1.1" xmlns:xlink="http://www.w3.org/1999/xlink" width="12px" height="20px" xmlns="http://www.w3.org/2000/svg">
  <g transform="matrix(1 0 0 1 -417 -738 )">
    <path d="M 3.15234375 9.41515907673124  L 11.47265625 0.187668954044511  C 11.62109375 0.0230470645318519  11.74609375 -0.0332709503014712  11.84765625 0.018714909544542  C 11.94921875 0.0707007693906689  12 0.209329728980379  12 0.434601788313557  L 12 19.5653982116864  C 12 19.7906702710196  11.94921875 19.9292992306093  11.84765625 19.9812850904555  C 11.74609375 20.0332709503015  11.62109375 19.9769529354681  11.47265625 19.8123310459555  L 3.15234375 10.5848409232688  C 3.08203125 10.5068621334998  3.03125 10.4245511887433  3 10.3379080889998  L 3 19.1495113329174  C 3 19.3747833922505  2.92578125 19.5697303666735  2.77734375 19.7343522561863  C 2.62890625 19.8989741456991  2.453125 19.9812850904555  2.25 19.9812850904555  L 0.75 19.9812850904555  C 0.546875 19.9812850904555  0.37109375 19.8989741456991  0.22265625 19.7343522561863  C 0.07421875 19.5697303666735  0 19.3747833922505  0 19.1495113329174  L 0 0.850488667082573  C 0 0.625216607749508  0.07421875 0.430269633326475  0.22265625 0.265647743813702  C 0.37109375 0.101025854300929  0.546875 0.018714909544542  0.75 0.018714909544542  L 2.25 0.018714909544542  C 2.453125 0.018714909544542  2.62890625 0.101025854300929  2.77734375 0.265647743813702  C 2.92578125 0.430269633326475  3 0.625216607749508  3 0.850488667082573  L 3 9.66209191100018  C 3.03125 9.56678450128243  3.08203125 9.48447355652604  3.15234375 9.41515907673124  Z " fill-rule="nonzero" fill="#333333" stroke="none" transform="matrix(1 0 0 1 417 738 )" />
  </g>
</svg>