<?xml version="1.0" encoding="utf-8"?>
<svg version="1.1" xmlns:xlink="http://www.w3.org/1999/xlink" width="12px" height="22px" xmlns="http://www.w3.org/2000/svg">
  <g transform="matrix(1 0 0 1 -897 -736 )">
    <path d="M 8.84765625 11.6433250155959  L 0.52734375 21.793564150551  C 0.37890625 21.974648229015  0.25390625 22.0365980453316  0.15234375 21.9794135995009  C 0.05078125 21.9222291536699  0 21.7697372981215  0 21.5219380328548  L 0 0.478061967145158  C 0 0.230262701878539  0.05078125 0.07777084632986  0.15234375 0.020586400499121  C 0.25390625 -0.0365980453316179  0.37890625 0.0253517709850368  0.52734375 0.20643584944896  L 8.84765625 10.3566749844041  C 8.91015625 10.4329209121787  8.9609375 10.5234629514104  9 10.6283011021002  L 9 0.935537533790819  C 9 0.687738268524325  9.07421875 0.473296596659117  9.22265625 0.292212518195194  C 9.37109375 0.111128439731145  9.546875 0.020586400499121  9.75 0.020586400499121  L 11.25 0.020586400499121  C 11.453125 0.020586400499121  11.62890625 0.111128439731145  11.77734375 0.292212518195194  C 11.92578125 0.473296596659117  12 0.687738268524325  12 0.935537533790819  L 12 21.0644624662092  C 12 21.3122617314757  11.92578125 21.5267034033409  11.77734375 21.7077874818048  C 11.62890625 21.8888715602689  11.453125 21.9794135995009  11.25 21.9794135995009  L 9.75 21.9794135995009  C 9.546875 21.9794135995009  9.37109375 21.8888715602689  9.22265625 21.7077874818048  C 9.07421875 21.5267034033409  9 21.3122617314757  9 21.0644624662092  L 9 11.3716988978998  C 8.9609375 11.4670063076176  8.91015625 11.5575483468496  8.84765625 11.6433250155959  Z " fill-rule="nonzero" fill="#333333" stroke="none" transform="matrix(1 0 0 1 897 736 )" />
  </g>
</svg>