<?xml version="1.0" encoding="utf-8"?>
<svg version="1.1" xmlns:xlink="http://www.w3.org/1999/xlink" width="12px" height="18px" xmlns="http://www.w3.org/2000/svg">
  <g transform="matrix(1 0 0 1 -1017 -738 )">
    <path d="M 11.6041666666665 8.208984375  C 11.8680555555557 8.431640625  12 8.6953125  12 9  C 12 9.3046875  11.8680555555557 9.568359375  11.6041666666665 9.791015625  L 2.27083333333337 17.666015625  C 2.00694444444446 17.888671875  1.69444444444446 18  1.33333333333337 18  C 0.972222222222172 18  0.659722222222172 17.888671875  0.395833333333371 17.666015625  C 0.131944444444457 17.443359375  0 17.1796875  0 16.875  L 0 1.125  C 0 0.8203125  0.131944444444457 0.556640625  0.395833333333371 0.333984375  C 0.659722222222172 0.111328125  0.972222222222172 0  1.33333333333337 0  C 1.69444444444446 0  2.00694444444446 0.111328125  2.27083333333337 0.333984375  L 11.6041666666665 8.208984375  Z " fill-rule="nonzero" fill="#333333" stroke="none" transform="matrix(1 0 0 1 1017 738 )" />
  </g>
</svg>