<?xml version="1.0" encoding="utf-8"?>
<svg version="1.1" xmlns:xlink="http://www.w3.org/1999/xlink" width="14px" height="18px" xmlns="http://www.w3.org/2000/svg">
  <g transform="matrix(1 0 0 1 -1153 -739 )">
    <path d="M 13.685546875 10.611328125  C 13.7432725694443 10.6855468750001  13.7721354166667 10.7734374999999  13.7721354166667 10.875  C 13.7721354166667 10.9140624999999  13.7690972222222 10.94140625  13.7630208333333 10.95703125  C 13.3741319444443 13.05078125  12.5598958333333 14.748046875  11.3203125 16.048828125  C 10.0807291666667 17.349609375  8.62847222222217 18  6.96354166666674 18  C 6.07638888888891 18  5.21809895833326 17.7851562500001  4.388671875 17.35546875  C 3.55924479166674 16.9257812499999  2.81944444444434 16.3125  2.16927083333326 15.515625  L 0.993489583333258 17.02734375  C 0.878038194444343 17.1757812500001  0.741319444444343 17.25  0.583333333333258 17.25  C 0.425347222222172 17.25  0.288628472222172 17.1757812500001  0.173177083333258 17.02734375  C 0.0577256944443434 16.8789062500001  0 16.7031249999999  0 16.5  L 0 11.25  C 0 11.046875  0.0577256944443434 10.87109375  0.173177083333258 10.72265625  C 0.288628472222172 10.57421875  0.425347222222172 10.5  0.583333333333258 10.5  L 4.66666666666674 10.5  C 4.82465277777783 10.5  4.96137152777783 10.57421875  5.07682291666674 10.72265625  C 5.19227430555566 10.87109375  5.25 11.046875  5.25 11.25  C 5.25 11.4531250000001  5.19227430555566 11.62890625  5.07682291666674 11.77734375  L 3.828125 13.3828125  C 4.25954861111109 13.8984375  4.74869791666674 14.296875  5.29557291666674 14.578125  C 5.84244791666674 14.859375  6.41059027777783 15  7 15  C 7.81423611111109 15  8.57378472222217 14.7460937499999  9.27864583333326 14.23828125  C 9.98350694444434 13.7304687500001  10.5486111111111 13.03125  10.9739583333333 12.140625  C 11.0407986111111 12.0078125000001  11.2018229166667 11.5507812500001  11.45703125 10.76953125  C 11.5056423611111 10.58984375  11.5967881944443 10.5  11.73046875 10.5  L 13.48046875 10.5  C 13.5594618055557 10.5  13.6278211805557 10.537109375  13.685546875 10.611328125  Z M 13.8268229166667 0.97265625  C 13.9422743055557 1.12109375000011  14 1.29687500000011  14 1.5  L 14 6.75  C 14 6.95312500000011  13.9422743055557 7.12890625  13.8268229166667 7.27734375  C 13.7113715277778 7.42578125  13.5746527777778 7.5  13.4166666666667 7.5  L 9.33333333333326 7.5  C 9.17534722222217 7.5  9.03862847222217 7.42578125  8.92317708333326 7.27734375  C 8.80772569444434 7.12890625  8.75 6.95312500000011  8.75 6.75  C 8.75 6.546875  8.80772569444434 6.37109375  8.92317708333326 6.22265625  L 10.1809895833333 4.60546875  C 9.28168402777783 3.53515625000011  8.22135416666674 3  7 3  C 6.18576388888891 3  5.42621527777783 3.25390625000011  4.72135416666674 3.76171875  C 4.01649305555566 4.26953124999989  3.45138888888891 4.96875  3.02604166666674 5.859375  C 2.95920138888891 5.99218749999989  2.79817708333326 6.44921874999989  2.54296875 7.23046875  C 2.49435763888891 7.41015625  2.40321180555566 7.5  2.26953125 7.5  L 0.455729166666742 7.5  C 0.376736111111086 7.5  0.308376736111086 7.462890625  0.250651041666742 7.388671875  C 0.192925347222172 7.31445312500011  0.1640625 7.22656250000011  0.1640625 7.125  L 0.1640625 7.04296875  C 0.559027777777828 4.94921875  1.37934027777783 3.251953125  2.625 1.951171875  C 3.87065972222217 0.650390625  5.32899305555566 0  7 0  C 7.88715277777783 0  8.75 0.216796875  9.58854166666674 0.650390625  C 10.4270833333333 1.083984375  11.1714409722222 1.6953125  11.8216145833333 2.484375  L 13.0065104166667 0.97265625  C 13.1219618055557 0.824218749999886  13.2586805555557 0.75  13.4166666666667 0.75  C 13.5746527777778 0.75  13.7113715277778 0.824218749999886  13.8268229166667 0.97265625  Z " fill-rule="nonzero" fill="#333333" stroke="none" transform="matrix(1 0 0 1 1153 739 )" />
  </g>
</svg>