<?xml version="1.0" encoding="utf-8"?>
<svg version="1.1" xmlns:xlink="http://www.w3.org/1999/xlink" width="21px" height="11px" xmlns="http://www.w3.org/2000/svg">
  <g transform="matrix(1 0 0 1 -832 -272 )">
    <path d="M 21 0.785209003215466  L 15.744094488189 0.785209003215466  L 15.744094488189 0  L 14.4330708661417 0  L 14.4330708661417 0.785209003215466  L 6.56692913385826 0.785209003215466  L 6.56692913385826 0  L 5.25590551181101 0  L 5.25590551181101 0.785209003215466  L 0 0.785209003215466  L 0 11  L 21 11  L 21 0.785209003215466  Z M 19.6889763779528 4.71832797427656  L 19.6889763779528 10.2996784565916  L 1.31102362204725 10.2996784565916  L 1.31102362204725 4.71832797427656  L 19.6889763779528 4.71832797427656  Z M 19.6771653543307 3.93311897106115  L 19.6889763779528 4  L 1.31102362204725 4  L 1.31102362204725 1.49260450160776  L 5.24409448818899 1.49260450160776  L 5.24409448818899 2.35562700964634  L 6.55511811023612 2.35562700964634  L 6.55511811023612 1.49260450160776  L 14.4330708661417 1.49260450160776  L 14.4330708661417 2.35562700964634  L 15.744094488189 2.35562700964634  L 15.744094488189 1.49260450160776  L 19.6771653543307 1.49260450160776  L 19.6771653543307 3.93311897106115  Z " fill-rule="nonzero" fill="#d7d7d7" stroke="none" transform="matrix(1 0 0 1 832 272 )" />
  </g>
</svg>