<?xml version="1.0" encoding="utf-8"?>
<svg version="1.1" xmlns:xlink="http://www.w3.org/1999/xlink" width="13px" height="4px" xmlns="http://www.w3.org/2000/svg">
  <g transform="matrix(1 0 0 1 -836 -278 )">
    <path d="M 10.4023402340234 4  L 10.4023402340234 2.4  L 13 2.4  L 13 4  L 10.4023402340234 4  Z M 5.20702070207009 1.6  L 5.20702070207009 0  L 7.80468046804681 0  L 7.80468046804681 1.6  L 5.20702070207009 1.6  Z M 10.4023402340234 1.6  L 10.4023402340234 0  L 13 0  L 13 1.6  L 10.4023402340234 1.6  Z M 0 4  L 0 2.4  L 2.5976597659766 2.4  L 2.5976597659766 4  L 0 4  Z M 5.20702070207009 4  L 5.20702070207009 2.4  L 7.80468046804681 2.4  L 7.80468046804681 4  L 5.20702070207009 4  Z M 0 1.6  L 0 0  L 2.5976597659766 0  L 2.5976597659766 1.6  L 0 1.6  Z " fill-rule="nonzero" fill="#d7d7d7" stroke="none" transform="matrix(1 0 0 1 836 278 )" />
  </g>
</svg>