<?xml version="1.0" encoding="utf-8"?>
<svg version="1.1" xmlns:xlink="http://www.w3.org/1999/xlink" width="19px" height="11px" xmlns="http://www.w3.org/2000/svg">
  <g transform="matrix(1 0 0 1 -1135 -273 )">
    <path d="M 19 0.785209003215414  L 14.2446569178853 0.785209003215414  L 14.2446569178853 0  L 13.0584926884139 0  L 13.0584926884139 0.785209003215414  L 5.94150731158606 0.785209003215414  L 5.94150731158606 0  L 4.75534308211468 0  L 4.75534308211468 0.785209003215414  L 0 0.785209003215414  L 0 11  L 19 11  L 19 0.785209003215414  Z M 17.8138357705286 4.71832797427652  L 17.8138357705286 10.2996784565917  L 1.18616422947139 10.2996784565917  L 1.18616422947139 4.71832797427652  L 17.8138357705286 4.71832797427652  Z M 17.8031496062993 3.93311897106111  L 17.8138357705286 4  L 1.18616422947139 4  L 1.18616422947139 1.49260450160773  L 4.74465691788532 1.49260450160773  L 4.74465691788532 2.3556270096463  L 5.93082114735648 2.3556270096463  L 5.93082114735648 1.49260450160773  L 13.0584926884139 1.49260450160773  L 13.0584926884139 2.3556270096463  L 14.2446569178853 2.3556270096463  L 14.2446569178853 1.49260450160773  L 17.8031496062993 1.49260450160773  L 17.8031496062993 3.93311897106111  Z " fill-rule="nonzero" fill="#d7d7d7" stroke="none" transform="matrix(1 0 0 1 1135 273 )" />
  </g>
</svg>