<?xml version="1.0" encoding="utf-8"?>
<svg version="1.1" xmlns:xlink="http://www.w3.org/1999/xlink" width="12px" height="4px" xmlns="http://www.w3.org/2000/svg">
  <g transform="matrix(1 0 0 1 -1139 -279 )">
    <path d="M 9.6021602160215 4  L 9.6021602160215 2.39999999999998  L 12 2.39999999999998  L 12 4  L 9.6021602160215 4  Z M 4.80648064806473 1.60000000000002  L 4.80648064806473 0  L 7.20432043204323 0  L 7.20432043204323 1.60000000000002  L 4.80648064806473 1.60000000000002  Z M 9.6021602160215 1.60000000000002  L 9.6021602160215 0  L 12 0  L 12 1.60000000000002  L 9.6021602160215 1.60000000000002  Z M 0 4  L 0 2.39999999999998  L 2.3978397839785 2.39999999999998  L 2.3978397839785 4  L 0 4  Z M 4.80648064806473 4  L 4.80648064806473 2.39999999999998  L 7.20432043204323 2.39999999999998  L 7.20432043204323 4  L 4.80648064806473 4  Z M 0 1.60000000000002  L 0 0  L 2.3978397839785 0  L 2.3978397839785 1.60000000000002  L 0 1.60000000000002  Z " fill-rule="nonzero" fill="#d7d7d7" stroke="none" transform="matrix(1 0 0 1 1139 279 )" />
  </g>
</svg>