<?xml version="1.0" encoding="utf-8"?>
<svg version="1.1" xmlns:xlink="http://www.w3.org/1999/xlink" width="13px" height="19px" xmlns="http://www.w3.org/2000/svg">
  <g transform="matrix(1 0 0 1 -597 -846 )">
    <path d="M 12.5711805555555 0.3525390625  C 12.8570601851852 0.587565104166742  13 0.865885416666742  13 1.1875  L 13 17.8125  C 13 18.1341145833334  12.8570601851852 18.4124348958334  12.5711805555555 18.6474609375  C 12.2853009259259 18.8824869791666  11.9467592592591 19  11.5555555555555 19  C 11.1643518518518 19  10.8258101851852 18.8824869791666  10.5399305555555 18.6474609375  L 0.428819444444457 10.3349609375  C 0.142939814814781 10.0999348958333  0 9.82161458333326  0 9.5  C 0 9.17838541666674  0.142939814814781 8.90006510416674  0.428819444444457 8.6650390625  L 10.5399305555555 0.3525390625  C 10.8258101851852 0.117513020833258  11.1643518518518 0  11.5555555555555 0  C 11.9467592592591 0  12.2853009259259 0.117513020833258  12.5711805555555 0.3525390625  Z " fill-rule="nonzero" fill="#333333" stroke="none" transform="matrix(1 0 0 1 597 846 )" />
  </g>
</svg>