<?xml version="1.0" encoding="utf-8"?>
<svg version="1.1" xmlns:xlink="http://www.w3.org/1999/xlink" width="13px" height="19px" xmlns="http://www.w3.org/2000/svg">
  <g transform="matrix(1 0 0 1 -1153 -845 )">
    <path d="M 12.5711805555557 8.6650390625  C 12.8570601851852 8.90006510416674  13 9.17838541666674  13 9.5  C 13 9.82161458333326  12.8570601851852 10.0999348958333  12.5711805555557 10.3349609375  L 2.46006944444434 18.6474609375  C 2.17418981481478 18.8824869791667  1.83564814814827 19  1.44444444444434 19  C 1.05324074074065 19  0.714699074073906 18.8824869791667  0.428819444444343 18.6474609375  C 0.142939814814781 18.4124348958333  0 18.1341145833333  0 17.8125  L 0 1.1875  C 0 0.865885416666629  0.142939814814781 0.587565104166629  0.428819444444343 0.3525390625  C 0.714699074073906 0.117513020833371  1.05324074074065 0  1.44444444444434 0  C 1.83564814814827 0  2.17418981481478 0.117513020833371  2.46006944444434 0.3525390625  L 12.5711805555557 8.6650390625  Z " fill-rule="nonzero" fill="#333333" stroke="none" transform="matrix(1 0 0 1 1153 845 )" />
  </g>
</svg>