<?xml version="1.0" encoding="utf-8"?>
<svg version="1.1" xmlns:xlink="http://www.w3.org/1999/xlink" width="16px" height="19px" xmlns="http://www.w3.org/2000/svg">
  <g transform="matrix(1 0 0 1 -1304 -846 )">
    <path d="M 15.640625 11.2008463541667  C 15.7065972222222 11.2791883680555  15.7395833333333 11.3719618055554  15.7395833333333 11.4791666666667  C 15.7395833333333 11.5203993055554  15.7361111111111 11.5492621527778  15.7291666666667 11.5657552083333  C 15.2847222222222 13.7758246527778  14.3541666666667 15.5673828125  12.9375 16.9404296875  C 11.5208333333333 18.3134765625  9.86111111111109 19  7.95833333333326 19  C 6.94444444444457 19  5.96354166666674 18.7732204861113  5.015625 18.3196614583333  C 4.06770833333326 17.8661024305554  3.22222222222217 17.21875  2.47916666666674 16.3776041666667  L 1.13541666666674 17.9733072916667  C 1.00347222222217 18.1299913194446  0.847222222222172 18.2083333333333  0.666666666666742 18.2083333333333  C 0.486111111111086 18.2083333333333  0.329861111111086 18.1299913194446  0.197916666666742 17.9733072916667  C 0.0659722222221717 17.8166232638891  0 17.6310763888887  0 17.4166666666667  L 0 11.875  C 0 11.6605902777778  0.0659722222221717 11.4750434027778  0.197916666666742 11.318359375  C 0.329861111111086 11.1616753472222  0.486111111111086 11.0833333333333  0.666666666666742 11.0833333333333  L 5.33333333333326 11.0833333333333  C 5.51388888888891 11.0833333333333  5.67013888888891 11.1616753472222  5.80208333333326 11.318359375  C 5.93402777777783 11.4750434027778  6 11.6605902777778  6 11.875  C 6 12.0894097222223  5.93402777777783 12.2749565972222  5.80208333333326 12.431640625  L 4.375 14.1263020833333  C 4.86805555555543 14.6705729166667  5.42708333333326 15.0911458333333  6.05208333333326 15.3880208333333  C 6.67708333333326 15.6848958333333  7.32638888888891 15.8333333333333  8 15.8333333333333  C 8.93055555555543 15.8333333333333  9.79861111111109 15.5653211805554  10.6041666666667 15.029296875  C 11.4097222222222 14.4932725694446  12.0555555555554 13.7552083333333  12.5416666666667 12.8151041666667  C 12.6180555555554 12.6749131944446  12.8020833333333 12.1924913194446  13.09375 11.3678385416667  C 13.1493055555554 11.1781684027778  13.2534722222222 11.0833333333333  13.40625 11.0833333333333  L 15.40625 11.0833333333333  C 15.4965277777778 11.0833333333333  15.5746527777778 11.1225043402778  15.640625 11.2008463541667  Z M 15.8020833333333 1.02669270833326  C 15.9340277777778 1.18337673611131  16 1.36892361111131  16 1.58333333333326  L 16 7.125  C 16 7.33940972222229  15.9340277777778 7.52495659722217  15.8020833333333 7.681640625  C 15.6701388888889 7.83832465277783  15.5138888888889 7.91666666666674  15.3333333333333 7.91666666666674  L 10.6666666666667 7.91666666666674  C 10.4861111111111 7.91666666666674  10.3298611111111 7.83832465277783  10.1979166666667 7.681640625  C 10.0659722222222 7.52495659722217  10 7.33940972222229  10 7.125  C 10 6.91059027777783  10.0659722222222 6.72504340277783  10.1979166666667 6.568359375  L 11.6354166666667 4.861328125  C 10.6076388888889 3.73155381944457  9.39583333333326 3.16666666666674  8 3.16666666666674  C 7.06944444444457 3.16666666666674  6.20138888888891 3.43467881944457  5.39583333333326 3.970703125  C 4.59027777777783 4.50672743055543  3.94444444444457 5.24479166666674  3.45833333333326 6.18489583333326  C 3.38194444444457 6.32508680555543  3.19791666666674 6.80750868055543  2.90625 7.63216145833326  C 2.85069444444457 7.82183159722217  2.74652777777783 7.91666666666674  2.59375 7.91666666666674  L 0.520833333333258 7.91666666666674  C 0.430555555555429 7.91666666666674  0.352430555555429 7.87749565972217  0.286458333333258 7.79915364583326  C 0.220486111111086 7.72081163194457  0.1875 7.62803819444457  0.1875 7.52083333333326  L 0.1875 7.43424479166674  C 0.638888888888914 5.22417534722217  1.57638888888891 3.4326171875  3 2.0595703125  C 4.42361111111109 0.6865234375  6.09027777777783 0  8 0  C 9.01388888888891 0  10 0.228841145833258  10.9583333333333 0.6865234375  C 11.9166666666667 1.14420572916674  12.7673611111111 1.78949652777783  13.5104166666667 2.62239583333326  L 14.8645833333333 1.02669270833326  C 14.9965277777778 0.870008680555429  15.1527777777778 0.791666666666742  15.3333333333333 0.791666666666742  C 15.5138888888889 0.791666666666742  15.6701388888889 0.870008680555429  15.8020833333333 1.02669270833326  Z " fill-rule="nonzero" fill="#333333" stroke="none" transform="matrix(1 0 0 1 1304 846 )" />
  </g>
</svg>