<?xml version="1.0" encoding="utf-8"?>
<svg version="1.1" xmlns:xlink="http://www.w3.org/1999/xlink" width="13px" height="25px" xmlns="http://www.w3.org/2000/svg">
  <g transform="matrix(1 0 0 1 -486 -844 )">
    <path d="M 3.4150390625 11.7689488459139  L 12.4287109375 0.234586192555639  C 12.5895182291667 0.0288088306647296  12.7249348958333 -0.0415886878769243  12.8349609375 0.0233936369306775  C 12.9449869791667 0.0883759617381656  13 0.261662161225331  13 0.543252235391719  L 13 24.4567477646083  C 13 24.7383378387744  12.9449869791667 24.9116240382618  12.8349609375 24.9766063630693  C 12.7249348958333 25.0415886878769  12.5895182291667 24.9711911693353  12.4287109375 24.7654138074444  L 3.4150390625 13.2310511540861  C 3.3388671875 13.1335776668748  3.28385416666669 13.030688985929  3.25 12.9223851112498  L 3.25 23.9368891661469  C 3.25 24.2184792403134  3.16959635416669 24.462162958342  3.0087890625 24.6679403202328  C 2.84798177083331 24.8737176821239  2.65755208333331 24.9766063630693  2.4375 24.9766063630693  L 0.8125 24.9766063630693  C 0.592447916666686 24.9766063630693  0.402018229166686 24.8737176821239  0.2412109375 24.6679403202328  C 0.0804036458333144 24.462162958342  0 24.2184792403134  0 23.9368891661469  L 0 1.0631108338531  C 0 0.7815207596866  0.0804036458333144 0.537837041658008  0.2412109375 0.332059679766985  C 0.402018229166686 0.126282317876075  0.592447916666686 0.0233936369306775  0.8125 0.0233936369306775  L 2.4375 0.0233936369306775  C 2.65755208333331 0.0233936369306775  2.84798177083331 0.126282317876075  3.0087890625 0.332059679766985  C 3.16959635416669 0.537837041658008  3.25 0.7815207596866  3.25 1.0631108338531  L 3.25 12.0776148887502  C 3.28385416666669 11.9584806266031  3.3388671875 11.8555919456574  3.4150390625 11.7689488459139  Z " fill-rule="nonzero" fill="#333333" stroke="none" transform="matrix(1 0 0 1 486 844 )" />
  </g>
</svg>