<?xml version="1.0" encoding="utf-8"?>
<svg version="1.1" xmlns:xlink="http://www.w3.org/1999/xlink" width="13px" height="23px" xmlns="http://www.w3.org/2000/svg">
  <g transform="matrix(1 0 0 1 -1019 -843 )">
    <path d="M 9.5849609375 12.1725670617593  L 0.5712890625 22.7841807028491  C 0.410481770833371 22.9734958757886  0.275065104166629 23.0382615928468  0.1650390625 22.9784778540237  C 0.0550130208333712 22.9186941152005  0 22.7592708116724  0 22.5002079434391  L 0 0.499792056560864  C 0 0.240729188327578  0.0550130208333712 0.0813058847992352  0.1650390625 0.0215221459762915  C 0.275065104166629 -0.0382615928467658  0.410481770833371 0.0265041242114421  0.5712890625 0.215819297150915  L 9.5849609375 10.8274329382407  C 9.65266927083348 10.9071445900048  9.70768229166652 11.0018021764746  9.75 11.1114056976502  L 9.75 0.978061967144868  C 9.75 0.718999098911695  9.83040364583348 0.494810078325372  9.9912109375 0.305494905385899  C 10.1520182291665 0.116179732446085  10.3424479166665 0.0215221459762915  10.5625 0.0215221459762915  L 12.1875 0.0215221459762915  C 12.4075520833335 0.0215221459762915  12.5979817708335 0.116179732446085  12.7587890625 0.305494905385899  C 12.9195963541665 0.494810078325372  13 0.718999098911695  13 0.978061967144868  L 13 22.0219380328551  C 13 22.2810009010883  12.9195963541665 22.5051899216746  12.7587890625 22.6945050946141  C 12.5979817708335 22.8838202675539  12.4075520833335 22.9784778540237  12.1875 22.9784778540237  L 10.5625 22.9784778540237  C 10.3424479166665 22.9784778540237  10.1520182291665 22.8838202675539  9.9912109375 22.6945050946141  C 9.83040364583348 22.5051899216746  9.75 22.2810009010883  9.75 22.0219380328551  L 9.75 11.8885943023498  C 9.70768229166652 11.9882338670546  9.65266927083348 12.0828914535247  9.5849609375 12.1725670617593  Z " fill-rule="nonzero" fill="#333333" stroke="none" transform="matrix(1 0 0 1 1019 843 )" />
  </g>
</svg>