<?xml version="1.0" encoding="utf-8"?>
<svg version="1.1" xmlns:xlink="http://www.w3.org/1999/xlink" width="20px" height="26px" xmlns="http://www.w3.org/2000/svg">
  <g transform="matrix(1 0 0 1 -302 -140 )">
    <path d="M 1.8125 0  L 18.1875 0  C 18.4270833333333 0  18.65625 0.0515532055518975  18.875 0.154659616655664  C 19.21875 0.303591099361086  19.4921875 0.53844459131966  19.6953125 0.859220092531388  C 19.8984375 1.17999559374312  20 1.5351398986561  20 1.92465300727034  L 20 24.0753469927297  C 20 24.4648601013439  19.8984375 24.8200044062569  19.6953125 25.1407799074686  C 19.4921875 25.4615554086803  19.21875 25.6964089006389  18.875 25.8453403833443  C 18.6770833333333 25.9369905265477  18.4479166666667 25.9828155981494  18.1875 25.9828155981494  C 17.6875 25.9828155981494  17.2552083333333 25.7995153117427  16.890625 25.4329147389293  L 10 18.146728354263  L 3.109375 25.4329147389293  C 2.734375 25.8109715796431  2.30208333333331 26  1.8125 26  C 1.57291666666669 26  1.34375 25.9484467944481  1.125 25.8453403833443  C 0.78125 25.6964089006389  0.5078125 25.4615554086803  0.3046875 25.1407799074686  C 0.1015625 24.8200044062569  0 24.4648601013439  0 24.0753469927297  L 0 1.92465300727034  C 0 1.5351398986561  0.1015625 1.17999559374312  0.3046875 0.859220092531388  C 0.5078125 0.53844459131966  0.78125 0.303591099361086  1.125 0.154659616655664  C 1.34375 0.0515532055518975  1.57291666666669 0  1.8125 0  Z " fill-rule="nonzero" fill="#666699" stroke="none" transform="matrix(1 0 0 1 302 140 )" />
  </g>
</svg>