<?xml version="1.0" encoding="utf-8"?>
<svg version="1.1" xmlns:xlink="http://www.w3.org/1999/xlink" width="50px" height="50px" xmlns="http://www.w3.org/2000/svg">
  <g transform="matrix(1 0 0 1 -498 -182 )">
    <path d="M 3.84615384615387 38.3928571428571  L 3.84615384615387 46.4285714285714  L 12.5 46.4285714285714  L 12.5 38.3928571428571  L 3.84615384615387 38.3928571428571  Z M 14.4230769230769 38.3928571428571  L 14.4230769230769 46.4285714285714  L 24.0384615384615 46.4285714285714  L 24.0384615384615 38.3928571428571  L 14.4230769230769 38.3928571428571  Z M 3.84615384615387 27.6785714285714  L 3.84615384615387 36.6071428571429  L 12.5 36.6071428571429  L 12.5 27.6785714285714  L 3.84615384615387 27.6785714285714  Z M 14.4230769230769 27.6785714285714  L 14.4230769230769 36.6071428571429  L 24.0384615384615 36.6071428571429  L 24.0384615384615 27.6785714285714  L 14.4230769230769 27.6785714285714  Z M 3.84615384615387 17.8571428571429  L 3.84615384615387 25.8928571428571  L 12.5 25.8928571428571  L 12.5 17.8571428571429  L 3.84615384615387 17.8571428571429  Z M 25.9615384615385 38.3928571428571  L 25.9615384615385 46.4285714285714  L 35.5769230769231 46.4285714285714  L 35.5769230769231 38.3928571428571  L 25.9615384615385 38.3928571428571  Z M 14.4230769230769 17.8571428571429  L 14.4230769230769 25.8928571428571  L 24.0384615384615 25.8928571428571  L 24.0384615384615 17.8571428571429  L 14.4230769230769 17.8571428571429  Z M 37.5 38.3928571428571  L 37.5 46.4285714285714  L 46.1538461538461 46.4285714285714  L 46.1538461538461 38.3928571428571  L 37.5 38.3928571428571  Z M 25.9615384615385 27.6785714285714  L 25.9615384615385 36.6071428571429  L 35.5769230769231 36.6071428571429  L 35.5769230769231 27.6785714285714  L 25.9615384615385 27.6785714285714  Z M 15.0991586538461 13.1277901785714  C 15.2894631410256 12.9510788690476  15.3846153846154 12.7418154761905  15.3846153846154 12.5  L 15.3846153846154 4.46428571428572  C 15.3846153846154 4.22247023809524  15.2894631410256 4.0132068452381  15.0991586538461 3.83649553571428  C 14.9088541666667 3.65978422619048  14.6834935897436 3.57142857142858  14.4230769230769 3.57142857142858  L 12.5 3.57142857142858  C 12.2395833333333 3.57142857142858  12.0142227564102 3.65978422619048  11.8239182692308 3.83649553571428  C 11.6336137820513 4.0132068452381  11.5384615384615 4.22247023809524  11.5384615384615 4.46428571428572  L 11.5384615384615 12.5  C 11.5384615384615 12.7418154761905  11.6336137820513 12.9510788690476  11.8239182692308 13.1277901785714  C 12.0142227564102 13.3045014880952  12.2395833333333 13.3928571428571  12.5 13.3928571428571  L 14.4230769230769 13.3928571428571  C 14.6834935897436 13.3928571428571  14.9088541666667 13.3045014880952  15.0991586538461 13.1277901785714  Z M 37.5 27.6785714285714  L 37.5 36.6071428571429  L 46.1538461538461 36.6071428571429  L 46.1538461538461 27.6785714285714  L 37.5 27.6785714285714  Z M 25.9615384615385 17.8571428571429  L 25.9615384615385 25.8928571428571  L 35.5769230769231 25.8928571428571  L 35.5769230769231 17.8571428571429  L 25.9615384615385 17.8571428571429  Z M 37.5 17.8571428571429  L 37.5 25.8928571428571  L 46.1538461538461 25.8928571428571  L 46.1538461538461 17.8571428571429  L 37.5 17.8571428571429  Z M 38.1760817307692 13.1277901785714  C 38.3663862179487 12.9510788690476  38.4615384615385 12.7418154761905  38.4615384615385 12.5  L 38.4615384615385 4.46428571428572  C 38.4615384615385 4.22247023809524  38.3663862179487 4.0132068452381  38.1760817307692 3.83649553571428  C 37.9857772435898 3.65978422619048  37.7604166666667 3.57142857142858  37.5 3.57142857142858  L 35.5769230769231 3.57142857142858  C 35.3165064102564 3.57142857142858  35.0911458333333 3.65978422619048  34.9008413461539 3.83649553571428  C 34.7105368589744 4.0132068452381  34.6153846153846 4.22247023809524  34.6153846153846 4.46428571428572  L 34.6153846153846 12.5  C 34.6153846153846 12.7418154761905  34.7105368589744 12.9510788690476  34.9008413461539 13.1277901785714  C 35.0911458333333 13.3045014880952  35.3165064102564 13.3928571428571  35.5769230769231 13.3928571428571  L 37.5 13.3928571428571  C 37.7604166666667 13.3928571428571  37.9857772435898 13.3045014880952  38.1760817307692 13.1277901785714  Z M 48.8581730769231 8.203125  C 49.619391025641 8.90997023809524  50 9.7470238095238  50 10.7142857142857  L 50 46.4285714285714  C 50 47.3958333333333  49.619391025641 48.2328869047619  48.8581730769231 48.9397321428571  C 48.0969551282051 49.6465773809524  47.1955128205128 50  46.1538461538461 50  L 3.84615384615387 50  C 2.80448717948718 50  1.90304487179486 49.6465773809524  1.14182692307691 48.9397321428571  C 0.38060897435895 48.2328869047619  0 47.3958333333333  0 46.4285714285714  L 0 10.7142857142857  C 0 9.7470238095238  0.38060897435895 8.90997023809524  1.14182692307691 8.203125  C 1.90304487179486 7.49627976190476  2.80448717948718 7.14285714285714  3.84615384615387 7.14285714285714  L 7.69230769230768 7.14285714285714  L 7.69230769230768 4.46428571428572  C 7.69230769230768 3.23660714285714  8.16306089743591 2.18563988095238  9.10456730769232 1.31138392857142  C 10.0460737179487 0.437127976190482  11.1778846153846 0  12.5 0  L 14.4230769230769 0  C 15.7451923076923 0  16.8770032051282 0.437127976190482  17.8185096153846 1.31138392857142  C 18.7600160256411 2.18563988095238  19.2307692307692 3.23660714285714  19.2307692307692 4.46428571428572  L 19.2307692307692 8  L 30.7692307692308 8  L 30.7692307692308 4.46428571428572  C 30.7692307692308 3.23660714285714  31.239983974359 2.18563988095238  32.1814903846154 1.31138392857142  C 33.1229967948718 0.437127976190482  34.2548076923077 0  35.5769230769231 0  L 37.5 0  C 38.8221153846154 0  39.9539262820513 0.437127976190482  40.8954326923077 1.31138392857142  C 41.8369391025641 2.18563988095238  42.3076923076923 3.23660714285714  42.3076923076923 4.46428571428572  L 42.3076923076923 7.14285714285714  L 46.1538461538461 7.14285714285714  C 47.1955128205128 7.14285714285714  48.0969551282051 7.49627976190476  48.8581730769231 8.203125  Z " fill-rule="nonzero" fill="#666699" stroke="none" transform="matrix(1 0 0 1 498 182 )" />
  </g>
</svg>