<?xml version="1.0" encoding="utf-8"?>
<svg version="1.1" xmlns:xlink="http://www.w3.org/1999/xlink" width="23px" height="22px" xmlns="http://www.w3.org/2000/svg">
  <g transform="matrix(1 0 0 1 -545 -240 )">
    <path d="M 21.4576822916666 5.478515625  C 22.4858940972223 7.16384548611114  23 9.00434027777774  23 11  C 23 12.9956597222223  22.4858940972223 14.8361545138889  21.4576822916666 16.521484375  C 20.4294704861112 18.2068142361111  19.0343967013888 19.5412326388889  17.2724609375 20.5247395833333  C 15.5105251736112 21.5082465277777  13.5863715277777 22  11.5 22  C 9.41362847222229 22  7.4894748263888 21.5082465277777  5.7275390625 20.5247395833333  C 3.9656032986112 19.5412326388889  2.5705295138888 18.2068142361111  1.54231770833337 16.521484375  C 0.514105902777828 14.8361545138889  0 12.9956597222223  0 11  C 0 9.00434027777774  0.514105902777828 7.16384548611114  1.54231770833337 5.478515625  C 2.5705295138888 3.79318576388886  3.9656032986112 2.45876736111114  5.7275390625 1.47526041666669  C 7.4894748263888 0.491753472222257  9.41362847222229 0  11.5 0  C 13.5863715277777 0  15.5105251736112 0.491753472222257  17.2724609375 1.47526041666669  C 19.0343967013888 2.45876736111114  20.4294704861112 3.79318576388886  21.4576822916666 5.478515625  Z " fill-rule="nonzero" fill="#ff0000" stroke="none" transform="matrix(1 0 0 1 545 240 )" />
  </g>
</svg>