<?xml version="1.0" encoding="utf-8"?>
<svg version="1.1" xmlns:xlink="http://www.w3.org/1999/xlink" width="50px" height="50px" xmlns="http://www.w3.org/2000/svg">
  <g transform="matrix(1 0 0 1 -653 -182 )">
    <path d="M 39.423076923077 26.2555803571429  C 39.423076923077 26.4973958333333  39.3329326923076 26.7113095238095  39.1526442307692 26.8973214285714  L 23.7680288461538 41.1830357142857  C 23.5677083333334 41.3504464285714  23.3373397435897 41.4341517857143  23.076923076923 41.4341517857143  C 22.8165064102564 41.4341517857143  22.5861378205128 41.3504464285714  22.3858173076924 41.1830357142857  L 13.7319711538462 33.1473214285714  C 13.5516826923076 32.9613095238095  13.4615384615385 32.7473958333333  13.4615384615385 32.5055803571429  C 13.4615384615385 32.2637648809524  13.5516826923076 32.0591517857143  13.7319711538462 31.8917410714286  L 15.1141826923076 30.6082589285714  C 15.2944711538462 30.4408482142857  15.5148237179487 30.3571428571429  15.7752403846154 30.3571428571429  C 16.035657051282 30.3571428571429  16.2660256410256 30.4408482142857  16.4663461538462 30.6082589285714  L 23.076923076923 36.7466517857143  L 36.4182692307692 24.3582589285714  C 36.6185897435897 24.1908482142857  36.8489583333334 24.1071428571429  37.109375 24.1071428571429  C 37.3697916666666 24.1071428571429  37.5901442307692 24.1908482142857  37.7704326923076 24.3582589285714  L 39.1526442307692 25.6417410714286  C 39.3329326923076 25.8091517857143  39.423076923077 26.0137648809524  39.423076923077 26.2555803571429  Z M 4 17.8571428571429  L 4 46  L 46 46  L 46 18  L 26.0000000007464 18  L 4 17.8571428571429  Z M 15.1141826923076 13.1417410714286  C 15.2944711538462 12.9743303571429  15.3846153846154 12.7604166666667  15.3846153846154 12.5  L 15.3846153846154 4.46428571428572  C 15.3846153846154 4.20386904761904  15.2944711538462 3.98995535714286  15.1141826923076 3.82254464285714  C 14.9338942307692 3.65513392857142  14.7035256410256 3.57142857142858  14.423076923077 3.57142857142858  L 12.5 3.57142857142858  C 12.2195512820513 3.57142857142858  11.9891826923076 3.65513392857142  11.8088942307692 3.82254464285714  C 11.6286057692308 3.98995535714286  11.5384615384615 4.20386904761904  11.5384615384615 4.46428571428572  L 11.5384615384615 12.5  C 11.5384615384615 12.7604166666667  11.6286057692308 12.9743303571429  11.8088942307692 13.1417410714286  C 11.9891826923076 13.3091517857143  12.2195512820513 13.3928571428571  12.5 13.3928571428571  L 14.423076923077 13.3928571428571  C 14.7035256410256 13.3928571428571  14.9338942307692 13.3091517857143  15.1141826923076 13.1417410714286  Z M 38.1911057692308 13.1417410714286  C 38.3713942307692 12.9743303571429  38.4615384615385 12.7604166666667  38.4615384615385 12.5  L 38.4615384615385 4.46428571428572  C 38.4615384615385 4.20386904761904  38.3713942307692 3.98995535714286  38.1911057692308 3.82254464285714  C 38.0108173076924 3.65513392857142  37.7804487179487 3.57142857142858  37.5 3.57142857142858  L 35.576923076923 3.57142857142858  C 35.2964743589744 3.57142857142858  35.0661057692308 3.65513392857142  34.8858173076924 3.82254464285714  C 34.7055288461538 3.98995535714286  34.6153846153846 4.20386904761904  34.6153846153846 4.46428571428572  L 34.6153846153846 12.5  C 34.6153846153846 12.7604166666667  34.7055288461538 12.9743303571429  34.8858173076924 13.1417410714286  C 35.0661057692308 13.3091517857143  35.2964743589744 13.3928571428571  35.576923076923 13.3928571428571  L 37.5 13.3928571428571  C 37.7804487179487 13.3928571428571  38.0108173076924 13.3091517857143  38.1911057692308 13.1417410714286  Z M 48.858173076923 8.203125  C 49.619391025641 8.90997023809524  50 9.7470238095238  50 10.7142857142857  L 50 46.4285714285714  C 50 47.3958333333333  49.619391025641 48.2328869047619  48.858173076923 48.9397321428571  C 48.0969551282052 49.6465773809524  47.1955128205128 50  46.1538461538462 50  L 3.84615384615381 50  C 2.80448717948718 50  1.9030448717948 49.6465773809524  1.14182692307702 48.9397321428571  C 0.380608974359006 48.2328869047619  0 47.3958333333333  0 46.4285714285714  L 0 10.7142857142857  C 0 9.7470238095238  0.380608974359006 8.90997023809524  1.14182692307702 8.203125  C 1.9030448717948 7.49627976190476  2.80448717948718 7.14285714285714  3.84615384615381 7.14285714285714  L 7.69230769230762 7.14285714285714  L 7.69230769230762 4.46428571428572  C 7.69230769230762 3.23660714285714  8.1630608974358 2.18563988095238  9.10456730769238 1.31138392857142  C 10.0460737179487 0.437127976190482  11.1778846153846 0  12.5 0  L 14.423076923077 0  C 15.7451923076924 0  16.8770032051282 0.437127976190482  17.8185096153846 1.31138392857142  C 18.760016025641 2.18563988095238  19.2307692307692 3.23660714285714  19.2307692307692 4.46428571428572  L 19.2307692307692 8  L 30.7692307692308 8  L 30.7692307692308 4.46428571428572  C 30.7692307692308 3.23660714285714  31.239983974359 2.18563988095238  32.1814903846154 1.31138392857142  C 33.1229967948718 0.437127976190482  34.2548076923076 0  35.576923076923 0  L 37.5 0  C 38.8221153846154 0  39.9539262820513 0.437127976190482  40.8954326923076 1.31138392857142  C 41.8369391025642 2.18563988095238  42.3076923076924 3.23660714285714  42.3076923076924 4.46428571428572  L 42.3076923076924 7.14285714285714  L 46.1538461538462 7.14285714285714  C 47.1955128205128 7.14285714285714  48.0969551282052 7.49627976190476  48.858173076923 8.203125  Z " fill-rule="nonzero" fill="#666699" stroke="none" transform="matrix(1 0 0 1 653 182 )" />
  </g>
</svg>