<?xml version="1.0" encoding="utf-8"?>
<svg version="1.1" xmlns:xlink="http://www.w3.org/1999/xlink" width="23px" height="19px" xmlns="http://www.w3.org/2000/svg">
  <g transform="matrix(1 0 0 1 -244 -54 )">
    <path d="M 22.7154947916667 15.48203125  C 22.9051649305556 15.6700520833334  23 15.8927083333334  23 16.15  L 23 18.05  C 23 18.3072916666667  22.9051649305556 18.5299479166667  22.7154947916667 18.71796875  C 22.5258246527778 18.9059895833334  22.3012152777778 19  22.0416666666667 19  L 0.958333333333315 19  C 0.698784722222229 19  0.474175347222229 18.9059895833334  0.284505208333314 18.71796875  C 0.0948350694444286 18.5299479166667  0 18.3072916666667  0 18.05  L 0 16.15  C 0 15.8927083333334  0.0948350694444286 15.6700520833334  0.284505208333314 15.48203125  C 0.474175347222229 15.2940104166667  0.698784722222229 15.2  0.958333333333315 15  L 22.0416666666667 15  C 22.3012152777778 15.2  22.5258246527778 15.2940104166667  22.7154947916667 15.48203125  Z M 22.7154947916667 7.88203124999996  C 22.9051649305556 8.07005208333335  23 8.29270833333335  23 8.54999999999997  L 23 10.45  C 23 10.7072916666666  22.9051649305556 10.9299479166666  22.7154947916667 11.11796875  C 22.5258246527778 11.3059895833333  22.3012152777778 11.4  22.0416666666667 11.4  L 0.958333333333315 11.4  C 0.698784722222229 11.4  0.474175347222229 11.3059895833333  0.284505208333314 11.11796875  C 0.0948350694444286 10.9299479166666  0 10.7072916666666  0 10.45  L 0 8.54999999999997  C 0 8.29270833333335  0.0948350694444286 8.07005208333335  0.284505208333314 7.88203124999996  C 0.474175347222229 7.69401041666666  0.698784722222229 7.60000000000002  0.958333333333315 7.60000000000002  L 22.0416666666667 7.60000000000002  C 22.3012152777778 7.60000000000002  22.5258246527778 7.69401041666666  22.7154947916667 7.88203124999996  Z M 22.7154947916667 0.282031250000038  C 22.9051649305556 0.470052083333336  23 0.692708333333336  23 0.950000000000038  L 23 2.85000000000002  C 23 3.10729166666663  22.9051649305556 3.32994791666663  22.7154947916667 3.51796875000002  C 22.5258246527778 3.70598958333331  22.3012152777778 3.79999999999996  22.0416666666667 4  L 0.958333333333315 4  C 0.698784722222229 3.79999999999996  0.474175347222229 3.70598958333331  0.284505208333314 3.51796875000002  C 0.0948350694444286 3.32994791666663  0 3.10729166666663  0 2.85000000000002  L 0 0.950000000000038  C 0 0.692708333333336  0.0948350694444286 0.470052083333336  0.284505208333314 0.282031250000038  C 0.474175347222229 0.0940104166666487  0.698784722222229 0  0.958333333333315 0  L 22.0416666666667 0  C 22.3012152777778 0  22.5258246527778 0.0940104166666487  22.7154947916667 0.282031250000038  Z " fill-rule="nonzero" fill="#aeaeae" stroke="none" transform="matrix(1 0 0 1 244 54 )" />
  </g>
</svg>