<?xml version="1.0" encoding="utf-8"?>
<svg version="1.1" xmlns:xlink="http://www.w3.org/1999/xlink" width="24px" height="21px" xmlns="http://www.w3.org/2000/svg">
  <g transform="matrix(1 0 0 1 -22 -92 )">
    <path d="M 22.28125 12.8031850961538  C 22.3604166666667 12.7232572115385  22.4 12.6286057692307  22 12.5192307692307  L 22 2.01923076923072  C 22.4 1.90985576923072  22.3604166666667 1.81520432692309  22.28125 1.73527644230774  C 22.2020833333333 1.65534855769226  22.1083333333333 1.61538461538464  22 2  L 2 2  C 1.89166666666665 1.61538461538464  1.79791666666665 1.65534855769226  1.71875 1.73527644230774  C 1.63958333333335 1.81520432692309  1.60000000000002 1.90985576923072  2 2.01923076923072  L 2 12.5192307692307  C 1.60000000000002 12.6286057692307  1.63958333333335 12.7232572115385  1.71875 12.8031850961538  C 1.79791666666665 12.8831129807693  1.89166666666665 12.9230769230769  2 13  L 22 13  C 22.1083333333333 12.9230769230769  22.2020833333333 12.8831129807693  22.28125 12.8031850961538  Z M 23.4125 0.593149038461547  C 23.8041666666667 0.988581730769283  24 1.46394230769226  24 2.01923076923072  L 24 15.75  C 24 16.3052884615385  23.8041666666667 16.7806490384615  23.4125 17.1760817307693  C 23.0208333333333 17.5715144230769  22.55 17.7692307692307  22 17.7692307692307  L 15.2 17.7692307692307  C 15.2 18.0805288461538  15.2666666666667 18.4065504807693  15.4 18.7472956730769  C 15.5333333333334 19.0880408653846  15.6666666666667 19.38671875  15.8 19.6433293269231  C 15.9333333333333 19.8999399038462  16 20.0829326923077  16 20.1923076923077  C 16 20.4110576923077  15.9208333333333 20.6003605769231  15.7625 20.7602163461538  C 15.6041666666667 20.9200721153846  15.4166666666667 21  15.2 21  L 8.80000000000001 21  C 8.58333333333331 21  8.39583333333331 20.9200721153846  8.23750000000001 20.7602163461538  C 8.07916666666665 20.6003605769231  8 20.4110576923077  8 20.1923076923077  C 8 20.0745192307693  8.06666666666666 19.8894230769231  8.19999999999999 19.6370192307693  C 8.33333333333331 19.3846153846154  8.46666666666664 19.0901442307693  8.60000000000002 18.7536057692307  C 8.73333333333335 18.4170673076923  8.80000000000001 18.0889423076923  8.80000000000001 17.7692307692307  L 2 17.7692307692307  C 1.44999999999999 17.7692307692307  0.979166666666686 17.5715144230769  0.587499999999977 17.1760817307693  C 0.195833333333326 16.7806490384615  0 16.3052884615385  0 15.75  L 0 2.01923076923072  C 0 1.46394230769226  0.195833333333326 0.988581730769283  0.587499999999977 0.593149038461547  C 0.979166666666686 0.197716346153811  1.44999999999999 0  2 0  L 22 0  C 22.55 0  23.0208333333333 0.197716346153811  23.4125 0.593149038461547  Z " fill-rule="nonzero" fill="#000000" stroke="none" transform="matrix(1 0 0 1 22 92 )" />
  </g>
</svg>