<?xml version="1.0" encoding="utf-8"?>
<svg version="1.1" xmlns:xlink="http://www.w3.org/1999/xlink" width="10px" height="19px" xmlns="http://www.w3.org/2000/svg">
  <g transform="matrix(1 0 0 1 -217 -542 )">
    <path d="M 9.67013888888891 0.3525390625  C 9.8900462962963 0.587565104166742  10 0.865885416666742  10 1.1875  L 10 17.8125  C 10 18.1341145833334  9.8900462962963 18.4124348958334  9.67013888888891 18.6474609375  C 9.45023148148141 18.8824869791666  9.18981481481467 19  8.88888888888891 19  C 8.58796296296293 19  8.3275462962963 18.8824869791666  8.10763888888891 18.6474609375  L 0.329861111111086 10.3349609375  C 0.109953703703695 10.0999348958333  0 9.82161458333326  0 9.5  C 0 9.17838541666674  0.109953703703695 8.90006510416674  0.329861111111086 8.6650390625  L 8.10763888888891 0.3525390625  C 8.3275462962963 0.117513020833258  8.58796296296293 0  8.88888888888891 0  C 9.18981481481467 0  9.45023148148141 0.117513020833258  9.67013888888891 0.3525390625  Z " fill-rule="nonzero" fill="#333333" stroke="none" transform="matrix(1 0 0 1 217 542 )" />
  </g>
</svg>