<?xml version="1.0" encoding="utf-8"?>
<svg version="1.1" xmlns:xlink="http://www.w3.org/1999/xlink" width="10px" height="19px" xmlns="http://www.w3.org/2000/svg">
  <g transform="matrix(1 0 0 1 -637 -541 )">
    <path d="M 9.67013888888891 8.6650390625  C 9.8900462962963 8.90006510416674  10 9.17838541666674  10 9.5  C 10 9.82161458333326  9.8900462962963 10.0999348958333  9.67013888888891 10.3349609375  L 1.89236111111109 18.6474609375  C 1.6724537037037 18.8824869791667  1.41203703703718 19  1.11111111111109 19  C 0.810185185185105 19  0.549768518518363 18.8824869791667  0.329861111111086 18.6474609375  C 0.109953703703695 18.4124348958333  0 18.1341145833333  0 17.8125  L 0 1.1875  C 0 0.865885416666629  0.109953703703695 0.587565104166629  0.329861111111086 0.3525390625  C 0.549768518518363 0.117513020833371  0.810185185185105 0  1.11111111111109 0  C 1.41203703703718 0  1.6724537037037 0.117513020833371  1.89236111111109 0.3525390625  L 9.67013888888891 8.6650390625  Z " fill-rule="nonzero" fill="#333333" stroke="none" transform="matrix(1 0 0 1 637 541 )" />
  </g>
</svg>