<?xml version="1.0" encoding="utf-8"?>
<svg version="1.1" xmlns:xlink="http://www.w3.org/1999/xlink" width="11px" height="19px" xmlns="http://www.w3.org/2000/svg">
  <g transform="matrix(1 0 0 1 -751 -542 )">
    <path d="M 10.7529296875 11.2008463541667  C 10.7982855902776 11.2791883680555  10.8209635416666 11.3719618055554  10.8209635416666 11.4791666666667  C 10.8209635416666 11.5203993055554  10.8185763888888 11.5492621527778  10.8138020833334 11.5657552083333  C 10.5082465277776 13.7758246527778  9.86848958333337 15.5673828125  8.89453125 16.9404296875  C 7.92057291666663 18.3134765625  6.7795138888888 19  5.47135416666663 19  C 4.77430555555566 19  4.09993489583337 18.7732204861113  3.4482421875 18.3196614583333  C 2.79654947916663 17.8661024305554  2.2152777777776 17.21875  1.70442708333337 16.3776041666667  L 0.780598958333371 17.9733072916667  C 0.689887152777601 18.1299913194446  0.582465277777601 18.2083333333333  0.458333333333371 18.2083333333333  C 0.3342013888888 18.2083333333333  0.2267795138888 18.1299913194446  0.136067708333371 17.9733072916667  C 0.0453559027776009 17.8166232638891  0 17.6310763888887  0 17.4166666666667  L 0 11.875  C 0 11.6605902777778  0.0453559027776009 11.4750434027778  0.136067708333371 11.318359375  C 0.2267795138888 11.1616753472222  0.3342013888888 11.0833333333333  0.458333333333371 11.0833333333333  L 3.66666666666663 11.0833333333333  C 3.7907986111112 11.0833333333333  3.8982204861112 11.1616753472222  3.98893229166663 11.318359375  C 4.0796440972224 11.4750434027778  4.125 11.6605902777778  4.125 11.875  C 4.125 12.0894097222223  4.0796440972224 12.2749565972222  3.98893229166663 12.431640625  L 3.0078125 14.1263020833333  C 3.34678819444434 14.6705729166667  3.73111979166663 15.0911458333333  4.16080729166663 15.3880208333333  C 4.59049479166663 15.6848958333333  5.0368923611112 15.8333333333333  5.5 15.8333333333333  C 6.13975694444434 15.8333333333333  6.7365451388888 15.5653211805554  7.29036458333337 15.029296875  C 7.8441840277776 14.4932725694446  8.28819444444434 13.7552083333333  8.62239583333337 12.8151041666667  C 8.67491319444434 12.6749131944446  8.80143229166663 12.1924913194446  9.001953125 11.3678385416667  C 9.04014756944434 11.1781684027778  9.1117621527776 11.0833333333333  9.216796875 11.0833333333333  L 10.591796875 11.0833333333333  C 10.6538628472224 11.0833333333333  10.7075737847224 11.1225043402778  10.7529296875 11.2008463541667  Z M 10.8639322916666 1.02669270833326  C 10.9546440972224 1.18337673611131  11 1.36892361111131  11 1.58333333333326  L 11 7.125  C 11 7.33940972222229  10.9546440972224 7.52495659722217  10.8639322916666 7.681640625  C 10.7732204861112 7.83832465277783  10.6657986111112 7.91666666666674  10.5416666666666 7.91666666666674  L 7.33333333333337 7.91666666666674  C 7.2092013888888 7.91666666666674  7.1017795138888 7.83832465277783  7.01106770833337 7.681640625  C 6.9203559027776 7.52495659722217  6.875 7.33940972222229  6.875 7.125  C 6.875 6.91059027777783  6.9203559027776 6.72504340277783  7.01106770833337 6.568359375  L 7.99934895833337 4.861328125  C 7.2927517361112 3.73155381944457  6.45963541666663 3.16666666666674  5.5 3.16666666666674  C 4.86024305555566 3.16666666666674  4.2634548611112 3.43467881944457  3.70963541666663 3.970703125  C 3.1558159722224 4.50672743055543  2.71180555555566 5.24479166666674  2.37760416666663 6.18489583333326  C 2.32508680555566 6.32508680555543  2.19856770833337 6.80750868055543  1.998046875 7.63216145833326  C 1.95985243055566 7.82183159722217  1.8882378472224 7.91666666666674  1.783203125 7.91666666666674  L 0.358072916666629 7.91666666666674  C 0.296006944444343 7.91666666666674  0.242296006944343 7.87749565972217  0.196940104166629 7.79915364583326  C 0.1515842013888 7.72081163194457  0.12890625 7.62803819444457  0.12890625 7.52083333333326  L 0.12890625 7.43424479166674  C 0.4392361111112 5.22417534722217  1.0837673611112 3.4326171875  2.0625 2.0595703125  C 3.0412326388888 0.6865234375  4.1870659722224 0  5.5 0  C 6.1970486111112 0  6.875 0.228841145833258  7.53385416666663 0.6865234375  C 8.19270833333337 1.14420572916674  8.7775607638888 1.78949652777783  9.28841145833337 2.62239583333326  L 10.2194010416666 1.02669270833326  C 10.3101128472224 0.870008680555429  10.4175347222224 0.791666666666742  10.5416666666666 0.791666666666742  C 10.6657986111112 0.791666666666742  10.7732204861112 0.870008680555429  10.8639322916666 1.02669270833326  Z " fill-rule="nonzero" fill="#333333" stroke="none" transform="matrix(1 0 0 1 751 542 )" />
  </g>
</svg>