<?xml version="1.0" encoding="utf-8"?>
<svg version="1.1" xmlns:xlink="http://www.w3.org/1999/xlink" width="10px" height="25px" xmlns="http://www.w3.org/2000/svg">
  <g transform="matrix(1 0 0 1 -133 -540 )">
    <path d="M 2.626953125 11.7689488459139  L 9.560546875 0.234586192555639  C 9.68424479166669 0.0288088306647296  9.78841145833331 -0.0415886878769243  9.873046875 0.0233936369306775  C 9.95768229166669 0.0883759617381656  10 0.261662161225331  10 0.543252235391719  L 10 24.4567477646083  C 10 24.7383378387744  9.95768229166669 24.9116240382618  9.873046875 24.9766063630693  C 9.78841145833331 25.0415886878769  9.68424479166669 24.9711911693353  9.560546875 24.7654138074444  L 2.626953125 13.2310511540861  C 2.568359375 13.1335776668748  2.52604166666669 13.030688985929  2.5 12.9223851112498  L 2.5 23.9368891661469  C 2.5 24.2184792403134  2.43815104166669 24.462162958342  2.314453125 24.6679403202328  C 2.19075520833331 24.8737176821239  2.04427083333331 24.9766063630693  1.875 24.9766063630693  L 0.625 24.9766063630693  C 0.455729166666686 24.9766063630693  0.309244791666686 24.8737176821239  0.185546875 24.6679403202328  C 0.0618489583333144 24.462162958342  0 24.2184792403134  0 23.9368891661469  L 0 1.0631108338531  C 0 0.7815207596866  0.0618489583333144 0.537837041658008  0.185546875 0.332059679766985  C 0.309244791666686 0.126282317876075  0.455729166666686 0.0233936369306775  0.625 0.0233936369306775  L 1.875 0.0233936369306775  C 2.04427083333331 0.0233936369306775  2.19075520833331 0.126282317876075  2.314453125 0.332059679766985  C 2.43815104166669 0.537837041658008  2.5 0.7815207596866  2.5 1.0631108338531  L 2.5 12.0776148887502  C 2.52604166666669 11.9584806266031  2.568359375 11.8555919456574  2.626953125 11.7689488459139  Z " fill-rule="nonzero" fill="#333333" stroke="none" transform="matrix(1 0 0 1 133 540 )" />
  </g>
</svg>