<?xml version="1.0" encoding="utf-8"?>
<svg version="1.1" xmlns:xlink="http://www.w3.org/1999/xlink" width="10px" height="23px" xmlns="http://www.w3.org/2000/svg">
  <g transform="matrix(1 0 0 1 -535 -539 )">
    <path d="M 7.373046875 12.1725670617593  L 0.439453125 22.7841807028491  C 0.315755208333371 22.9734958757886  0.211588541666629 23.0382615928468  0.126953125 22.9784778540237  C 0.0423177083333712 22.9186941152005  0 22.7592708116724  0 22.5002079434391  L 0 0.499792056560864  C 0 0.240729188327578  0.0423177083333712 0.0813058847992352  0.126953125 0.0215221459762915  C 0.211588541666629 -0.0382615928467658  0.315755208333371 0.0265041242114421  0.439453125 0.215819297150915  L 7.373046875 10.8274329382407  C 7.42513020833348 10.9071445900048  7.46744791666652 11.0018021764746  7.5 11.1114056976502  L 7.5 0.978061967144868  C 7.5 0.718999098911695  7.56184895833348 0.494810078325372  7.685546875 0.305494905385899  C 7.80924479166652 0.116179732446085  7.95572916666652 0.0215221459762915  8.125 0.0215221459762915  L 9.375 0.0215221459762915  C 9.54427083333348 0.0215221459762915  9.69075520833348 0.116179732446085  9.814453125 0.305494905385899  C 9.93815104166652 0.494810078325372  10 0.718999098911695  10 0.978061967144868  L 10 22.0219380328551  C 10 22.2810009010883  9.93815104166652 22.5051899216746  9.814453125 22.6945050946141  C 9.69075520833348 22.8838202675539  9.54427083333348 22.9784778540237  9.375 22.9784778540237  L 8.125 22.9784778540237  C 7.95572916666652 22.9784778540237  7.80924479166652 22.8838202675539  7.685546875 22.6945050946141  C 7.56184895833348 22.5051899216746  7.5 22.2810009010883  7.5 22.0219380328551  L 7.5 11.8885943023498  C 7.46744791666652 11.9882338670546  7.42513020833348 12.0828914535247  7.373046875 12.1725670617593  Z " fill-rule="nonzero" fill="#333333" stroke="none" transform="matrix(1 0 0 1 535 539 )" />
  </g>
</svg>