<?xml version="1.0" encoding="utf-8"?>
<svg version="1.1" xmlns:xlink="http://www.w3.org/1999/xlink" width="15px" height="17px" xmlns="http://www.w3.org/2000/svg">
  <g transform="matrix(1 0 0 1 -16 -21 )">
    <path d="M 14.8604803665865 7.37136589406779  C 14.8604803665865 3.31069719915254  11.5649485817308 0.0189076016949201  7.49968637019231 0.0189076016949201  C 3.43442415865385 0.0189076016949201  0.198408948317308 3.42788201694916  0.139888611778844 7.4881084417373  C 0.0862941706730709 11.2069159067797  5.73322864182691 16.9813319650424  7.49968637019231 16.9810923983051  C 9.2661440985577 16.9808528315678  14.8604803665865 11.4320345889831  14.8604803665865 7.37136589406779  Z M 10.6793397836539 7.25532362394068  C 10.6793397836539 9.00924443644068  9.25590486778847 10.4310709332627  7.5 10.4310709332627  C 5.7440951141827 10.4310709332627  4.32066021634614 9.0092444184322  4.32066021634614 7.25532362394068  C 4.32066021634614 5.50140282944915  5.74409513221153 4.07957631461865  7.5 4.07957629661017  C 9.25590486778847 4.07957627860169  10.6793397836539 5.50140281144068  10.6793397836539 7.25532362394068  Z " fill-rule="nonzero" fill="#a1a1a1" stroke="none" transform="matrix(1 0 0 1 16 21 )" />
  </g>
</svg>