<?xml version="1.0" encoding="utf-8"?>
<svg version="1.1" xmlns:xlink="http://www.w3.org/1999/xlink" width="8px" height="19px" xmlns="http://www.w3.org/2000/svg">
  <g transform="matrix(1 0 0 1 -163 -539 )">
    <path d="M 7.73611111111114 0.3525390625  C 7.91203703703704 0.587565104166742  8 0.865885416666742  8 1.1875  L 8 17.8125  C 8 18.1341145833334  7.91203703703704 18.4124348958334  7.73611111111114 18.6474609375  C 7.56018518518513 18.8824869791666  7.35185185185173 19  7.11111111111114 19  C 6.87037037037035 19  6.66203703703704 18.8824869791666  6.48611111111114 18.6474609375  L 0.263888888888857 10.3349609375  C 0.0879629629629619 10.0999348958333  0 9.82161458333326  0 9.5  C 0 9.17838541666674  0.0879629629629619 8.90006510416674  0.263888888888857 8.6650390625  L 6.48611111111114 0.3525390625  C 6.66203703703704 0.117513020833258  6.87037037037035 0  7.11111111111114 0  C 7.35185185185173 0  7.56018518518513 0.117513020833258  7.73611111111114 0.3525390625  Z " fill-rule="nonzero" fill="#333333" stroke="none" transform="matrix(1 0 0 1 163 539 )" />
  </g>
</svg>