<?xml version="1.0" encoding="utf-8"?>
<svg version="1.1" xmlns:xlink="http://www.w3.org/1999/xlink" width="8px" height="19px" xmlns="http://www.w3.org/2000/svg">
  <g transform="matrix(1 0 0 1 -478 -540 )">
    <path d="M 7.73611111111114 8.6650390625  C 7.91203703703707 8.90006510416674  8 9.17838541666674  8 9.5  C 8 9.82161458333326  7.91203703703707 10.0999348958333  7.73611111111114 10.3349609375  L 1.51388888888886 18.6474609375  C 1.33796296296293 18.8824869791667  1.12962962962973 19  0.888888888888857 19  C 0.648148148148096 19  0.439814814814667 18.8824869791667  0.263888888888857 18.6474609375  C 0.0879629629629335 18.4124348958333  0 18.1341145833333  0 17.8125  L 0 1.1875  C 0 0.865885416666629  0.0879629629629335 0.587565104166629  0.263888888888857 0.3525390625  C 0.439814814814667 0.117513020833371  0.648148148148096 0  0.888888888888857 0  C 1.12962962962973 0  1.33796296296293 0.117513020833371  1.51388888888886 0.3525390625  L 7.73611111111114 8.6650390625  Z " fill-rule="nonzero" fill="#333333" stroke="none" transform="matrix(1 0 0 1 478 540 )" />
  </g>
</svg>