<?xml version="1.0" encoding="utf-8"?>
<svg version="1.1" xmlns:xlink="http://www.w3.org/1999/xlink" width="8px" height="19px" xmlns="http://www.w3.org/2000/svg">
  <g transform="matrix(1 0 0 1 -563 -540 )">
    <path d="M 7.8203125 11.2008463541667  C 7.85329861111097 11.2791883680555  7.86979166666663 11.3719618055554  7.86979166666663 11.4791666666667  C 7.86979166666663 11.5203993055554  7.86805555555554 11.5492621527778  7.86458333333337 11.5657552083333  C 7.64236111111097 13.7758246527778  7.17708333333337 15.5673828125  6.46875 16.9404296875  C 5.76041666666663 18.3134765625  4.93055555555554 19  3.97916666666663 19  C 3.47222222222229 19  2.98177083333337 18.7732204861113  2.5078125 18.3196614583333  C 2.03385416666663 17.8661024305554  1.61111111111097 17.21875  1.23958333333337 16.3776041666667  L 0.567708333333371 17.9733072916667  C 0.501736111110972 18.1299913194446  0.423611111110972 18.2083333333333  0.333333333333371 18.2083333333333  C 0.243055555555543 18.2083333333333  0.164930555555543 18.1299913194446  0.0989583333333712 17.9733072916667  C 0.0329861111109722 17.8166232638891  0 17.6310763888887  0 17.4166666666667  L 0 11.875  C 0 11.6605902777778  0.0329861111109722 11.4750434027778  0.0989583333333712 11.318359375  C 0.164930555555543 11.1616753472222  0.243055555555543 11.0833333333333  0.333333333333371 11.0833333333333  L 2.66666666666663 11.0833333333333  C 2.75694444444446 11.0833333333333  2.83506944444446 11.1616753472222  2.90104166666663 11.318359375  C 2.96701388888903 11.4750434027778  3 11.6605902777778  3 11.875  C 3 12.0894097222223  2.96701388888903 12.2749565972222  2.90104166666663 12.431640625  L 2.1875 14.1263020833333  C 2.43402777777771 14.6705729166667  2.71354166666663 15.0911458333333  3.02604166666663 15.3880208333333  C 3.33854166666663 15.6848958333333  3.66319444444446 15.8333333333333  4 15.8333333333333  C 4.46527777777771 15.8333333333333  4.89930555555554 15.5653211805554  5.30208333333337 15.029296875  C 5.70486111111097 14.4932725694446  6.02777777777771 13.7552083333333  6.27083333333337 12.8151041666667  C 6.30902777777771 12.6749131944446  6.40104166666663 12.1924913194446  6.546875 11.3678385416667  C 6.57465277777771 11.1781684027778  6.62673611111097 11.0833333333333  6.703125 11.0833333333333  L 7.703125 11.0833333333333  C 7.74826388888903 11.0833333333333  7.78732638888903 11.1225043402778  7.8203125 11.2008463541667  Z M 7.90104166666663 1.02669270833326  C 7.96701388888903 1.18337673611131  8 1.36892361111131  8 1.58333333333326  L 8 7.125  C 8 7.33940972222229  7.96701388888903 7.52495659722217  7.90104166666663 7.681640625  C 7.83506944444446 7.83832465277783  7.75694444444446 7.91666666666674  7.66666666666663 7.91666666666674  L 5.33333333333337 7.91666666666674  C 5.24305555555554 7.91666666666674  5.16493055555554 7.83832465277783  5.09895833333337 7.681640625  C 5.03298611111097 7.52495659722217  5 7.33940972222229  5 7.125  C 5 6.91059027777783  5.03298611111097 6.72504340277783  5.09895833333337 6.568359375  L 5.81770833333337 4.861328125  C 5.30381944444446 3.73155381944457  4.69791666666663 3.16666666666674  4 3.16666666666674  C 3.53472222222229 3.16666666666674  3.10069444444446 3.43467881944457  2.69791666666663 3.970703125  C 2.29513888888903 4.50672743055543  1.97222222222229 5.24479166666674  1.72916666666663 6.18489583333326  C 1.69097222222229 6.32508680555543  1.59895833333337 6.80750868055543  1.453125 7.63216145833326  C 1.42534722222229 7.82183159722217  1.37326388888903 7.91666666666674  1.296875 7.91666666666674  L 0.260416666666629 7.91666666666674  C 0.215277777777715 7.91666666666674  0.176215277777715 7.87749565972217  0.143229166666629 7.79915364583326  C 0.110243055555543 7.72081163194457  0.09375 7.62803819444457  0.09375 7.52083333333326  L 0.09375 7.43424479166674  C 0.319444444444457 5.22417534722217  0.788194444444457 3.4326171875  1.5 2.0595703125  C 2.21180555555554 0.6865234375  3.04513888888903 0  4 0  C 4.50694444444446 0  5 0.228841145833258  5.47916666666663 0.6865234375  C 5.95833333333337 1.14420572916674  6.38368055555554 1.78949652777783  6.75520833333337 2.62239583333326  L 7.43229166666663 1.02669270833326  C 7.49826388888903 0.870008680555429  7.57638888888903 0.791666666666742  7.66666666666663 0.791666666666742  C 7.75694444444446 0.791666666666742  7.83506944444446 0.870008680555429  7.90104166666663 1.02669270833326  Z " fill-rule="nonzero" fill="#333333" stroke="none" transform="matrix(1 0 0 1 563 540 )" />
  </g>
</svg>