<?xml version="1.0" encoding="utf-8"?>
<svg version="1.1" xmlns:xlink="http://www.w3.org/1999/xlink" width="8px" height="25px" xmlns="http://www.w3.org/2000/svg">
  <g transform="matrix(1 0 0 1 -100 -536 )">
    <path d="M 2.1015625 11.7689488459139  L 7.6484375 0.234586192555639  C 7.74739583333334 0.0288088306647296  7.83072916666666 -0.0415886878769243  7.8984375 0.0233936369306775  C 7.96614583333334 0.0883759617381656  8 0.261662161225331  8 0.543252235391719  L 8 24.4567477646083  C 8 24.7383378387744  7.96614583333334 24.9116240382618  7.8984375 24.9766063630693  C 7.83072916666666 25.0415886878769  7.74739583333334 24.9711911693353  7.6484375 24.7654138074444  L 2.1015625 13.2310511540861  C 2.0546875 13.1335776668748  2.02083333333334 13.030688985929  2 12.9223851112498  L 2 23.9368891661469  C 2 24.2184792403134  1.95052083333334 24.462162958342  1.8515625 24.6679403202328  C 1.75260416666666 24.8737176821239  1.63541666666666 24.9766063630693  1.5 24.9766063630693  L 0.5 24.9766063630693  C 0.364583333333343 24.9766063630693  0.247395833333343 24.8737176821239  0.1484375 24.6679403202328  C 0.0494791666666572 24.462162958342  0 24.2184792403134  0 23.9368891661469  L 0 1.0631108338531  C 0 0.7815207596866  0.0494791666666572 0.537837041658008  0.1484375 0.332059679766985  C 0.247395833333343 0.126282317876075  0.364583333333343 0.0233936369306775  0.5 0.0233936369306775  L 1.5 0.0233936369306775  C 1.63541666666666 0.0233936369306775  1.75260416666666 0.126282317876075  1.8515625 0.332059679766985  C 1.95052083333334 0.537837041658008  2 0.7815207596866  2 1.0631108338531  L 2 12.0776148887502  C 2.02083333333334 11.9584806266031  2.0546875 11.8555919456574  2.1015625 11.7689488459139  Z " fill-rule="nonzero" fill="#333333" stroke="none" transform="matrix(1 0 0 1 100 536 )" />
  </g>
</svg>