<?xml version="1.0" encoding="utf-8"?>
<svg version="1.1" xmlns:xlink="http://www.w3.org/1999/xlink" width="8px" height="23px" xmlns="http://www.w3.org/2000/svg">
  <g transform="matrix(1 0 0 1 -401 -538 )">
    <path d="M 5.8984375 12.1725670617593  L 0.3515625 22.7841807028491  C 0.252604166666686 22.9734958757886  0.169270833333314 23.0382615928468  0.1015625 22.9784778540237  C 0.0338541666666856 22.9186941152005  0 22.7592708116724  0 22.5002079434391  L 0 0.499792056560864  C 0 0.240729188327578  0.0338541666666856 0.0813058847992352  0.1015625 0.0215221459762915  C 0.169270833333314 -0.0382615928467658  0.252604166666686 0.0265041242114421  0.3515625 0.215819297150915  L 5.8984375 10.8274329382407  C 5.9401041666668 10.9071445900048  5.9739583333332 11.0018021764746  6 11.1114056976502  L 6 0.978061967144868  C 6 0.718999098911695  6.0494791666668 0.494810078325372  6.1484375 0.305494905385899  C 6.2473958333332 0.116179732446085  6.3645833333332 0.0215221459762915  6.5 0.0215221459762915  L 7.5 0.0215221459762915  C 7.6354166666668 0.0215221459762915  7.7526041666668 0.116179732446085  7.8515625 0.305494905385899  C 7.9505208333332 0.494810078325372  8 0.718999098911695  8 0.978061967144868  L 8 22.0219380328551  C 8 22.2810009010883  7.9505208333332 22.5051899216746  7.8515625 22.6945050946141  C 7.7526041666668 22.8838202675539  7.6354166666668 22.9784778540237  7.5 22.9784778540237  L 6.5 22.9784778540237  C 6.3645833333332 22.9784778540237  6.2473958333332 22.8838202675539  6.1484375 22.6945050946141  C 6.0494791666668 22.5051899216746  6 22.2810009010883  6 22.0219380328551  L 6 11.8885943023498  C 5.9739583333332 11.9882338670546  5.9401041666668 12.0828914535247  5.8984375 12.1725670617593  Z " fill-rule="nonzero" fill="#333333" stroke="none" transform="matrix(1 0 0 1 401 538 )" />
  </g>
</svg>