<?xml version="1.0" encoding="utf-8"?>
<svg version="1.1" xmlns:xlink="http://www.w3.org/1999/xlink" width="12px" height="14px" xmlns="http://www.w3.org/2000/svg">
  <g transform="matrix(1 0 0 1 -798 -393 )">
    <path d="M 11.6041666666666 6.384765625  C 11.8680555555555 6.55794270833337  12 6.76302083333337  12 7  C 12 7.23697916666663  11.8680555555555 7.44205729166663  11.6041666666666 7.615234375  L 2.27083333333337 13.740234375  C 2.00694444444446 13.9134114583334  1.69444444444446 14  1.33333333333337 14  C 0.972222222222172 14  0.659722222222172 13.9134114583334  0.395833333333371 13.740234375  C 0.131944444444457 13.5670572916666  0 13.3619791666666  0 13.125  L 0 0.875  C 0 0.638020833333314  0.131944444444457 0.432942708333314  0.395833333333371 0.259765625  C 0.659722222222172 0.0865885416666856  0.972222222222172 0  1.33333333333337 0  C 1.69444444444446 0  2.00694444444446 0.0865885416666856  2.27083333333337 0.259765625  L 11.6041666666666 6.384765625  Z " fill-rule="nonzero" fill="#333333" stroke="none" transform="matrix(1 0 0 1 798 393 )" />
  </g>
</svg>