<?xml version="1.0" encoding="utf-8"?>
<svg version="1.1" xmlns:xlink="http://www.w3.org/1999/xlink" width="12px" height="16px" xmlns="http://www.w3.org/2000/svg">
  <g transform="matrix(1 0 0 1 -198 -393 )">
    <path d="M 3.15234375 7.53212726138497  L 11.47265625 0.150135163235632  C 11.62109375 0.0184376516255043  11.74609375 -0.0266167602411542  11.84765625 0.0149719276356564  C 11.94921875 0.0565606155125806  12 0.167463783184303  12 0.347681430650823  L 12 15.6523185693492  C 12 15.8325362168157  11.94921875 15.9434393844874  11.84765625 15.9850280723643  C 11.74609375 16.0266167602412  11.62109375 15.9815623483745  11.47265625 15.8498648367644  L 3.15234375 8.46787273861503  C 3.08203125 8.40548970679981  3.03125 8.33964095099464  3 8.27032647119984  L 3 15.3196090663339  C 3 15.4998267138004  2.92578125 15.6557842933388  2.77734375 15.787481804949  C 2.62890625 15.9191793165593  2.453125 15.9850280723643  2.25 15.9850280723643  L 0.75 15.9850280723643  C 0.546875 15.9850280723643  0.37109375 15.9191793165593  0.22265625 15.787481804949  C 0.07421875 15.6557842933388  0 15.4998267138004  0 15.3196090663339  L 0 0.680390933666104  C 0 0.500173286199583  0.07421875 0.344215706661203  0.22265625 0.212518195050961  C 0.37109375 0.0808206834407201  0.546875 0.0149719276356564  0.75 0.0149719276356564  L 2.25 0.0149719276356564  C 2.453125 0.0149719276356564  2.62890625 0.0808206834407201  2.77734375 0.212518195050961  C 2.92578125 0.344215706661203  3 0.500173286199583  3 0.680390933666104  L 3 7.72967352880016  C 3.03125 7.6534276010259  3.08203125 7.58757884522083  3.15234375 7.53212726138497  Z " fill-rule="nonzero" fill="#333333" stroke="none" transform="matrix(1 0 0 1 198 393 )" />
  </g>
</svg>