<?xml version="1.0" encoding="utf-8"?>
<svg version="1.1" xmlns:xlink="http://www.w3.org/1999/xlink" width="12px" height="16px" xmlns="http://www.w3.org/2000/svg">
  <g transform="matrix(1 0 0 1 -677 -392 )">
    <path d="M 8.84765625 8.46787273861514  L 0.52734375 15.8498648367645  C 0.37890625 15.9815623483746  0.25390625 16.0266167602413  0.15234375 15.9850280723643  C 0.05078125 15.9434393844873  0 15.8325362168157  0 15.6523185693491  L 0 0.347681430650937  C 0 0.167463783184303  0.05078125 0.0565606155125806  0.15234375 0.0149719276356564  C 0.25390625 -0.0266167602412679  0.37890625 0.0184376516253906  0.52734375 0.150135163235518  L 8.84765625 7.53212726138486  C 8.91015625 7.58757884522083  8.9609375 7.65342760102578  9 7.72967352880016  L 9 0.68039093366599  C 9 0.50017328619947  9.07421875 0.344215706661089  9.22265625 0.212518195050961  C 9.37109375 0.0808206834407201  9.546875 0.0149719276356564  9.75 0.0149719276356564  L 11.25 0.0149719276356564  C 11.453125 0.0149719276356564  11.62890625 0.0808206834407201  11.77734375 0.212518195050961  C 11.92578125 0.344215706661089  12 0.50017328619947  12 0.68039093366599  L 12 15.319609066334  C 12 15.4998267138005  11.92578125 15.6557842933389  11.77734375 15.787481804949  C 11.62890625 15.9191793165593  11.453125 15.9850280723643  11.25 15.9850280723643  L 9.75 15.9850280723643  C 9.546875 15.9850280723643  9.37109375 15.9191793165593  9.22265625 15.787481804949  C 9.07421875 15.6557842933389  9 15.4998267138005  9 15.319609066334  L 9 8.27032647119984  C 8.9609375 8.33964095099464  8.91015625 8.4054897067997  8.84765625 8.46787273861514  Z " fill-rule="nonzero" fill="#333333" stroke="none" transform="matrix(1 0 0 1 677 392 )" />
  </g>
</svg>