<?xml version="1.0" encoding="utf-8"?>
<svg version="1.1" xmlns:xlink="http://www.w3.org/1999/xlink" width="14px" height="14px" xmlns="http://www.w3.org/2000/svg">
  <g transform="matrix(1 0 0 1 -933 -394 )">
    <path d="M 13.685546875 8.25325520833337  C 13.7432725694444 8.31098090277783  13.7721354166667 8.37934027777771  13.7721354166667 8.45833333333337  C 13.7721354166667 8.48871527777771  13.7690972222222 8.50998263888891  13.7630208333333 8.52213541666663  C 13.3741319444444 10.1506076388889  12.5598958333333 11.470703125  11.3203125 12.482421875  C 10.0807291666667 13.494140625  8.62847222222223 14  6.96354166666666 14  C 6.07638888888891 14  5.21809895833334 13.8328993055557  4.388671875 13.4986979166666  C 3.55924479166666 13.1644965277777  2.81944444444443 12.6875  2.16927083333334 12.0677083333334  L 0.993489583333343 13.2434895833334  C 0.878038194444429 13.3589409722223  0.741319444444429 13.4166666666666  0.583333333333343 13.4166666666666  C 0.425347222222229 13.4166666666666  0.288628472222229 13.3589409722223  0.173177083333343 13.2434895833334  C 0.0577256944444287 13.1280381944446  0 12.9913194444443  0 12.8333333333334  L 0 8.75  C 0 8.59201388888891  0.0577256944444287 8.45529513888891  0.173177083333343 8.33984375  C 0.288628472222229 8.22439236111109  0.425347222222229 8.16666666666663  0.583333333333343 8.16666666666663  L 4.66666666666666 8.16666666666663  C 4.82465277777777 8.16666666666663  4.96137152777777 8.22439236111109  5.07682291666666 8.33984375  C 5.19227430555557 8.45529513888891  5.25 8.59201388888891  5.25 8.75  C 5.25 8.9079861111112  5.19227430555557 9.04470486111109  5.07682291666666 9.16015625  L 3.828125 10.4088541666666  C 4.25954861111109 10.8098958333334  4.74869791666666 11.1197916666666  5.29557291666666 11.3385416666666  C 5.84244791666666 11.5572916666666  6.41059027777777 11.6666666666666  7 11.6666666666666  C 7.81423611111109 11.6666666666666  8.57378472222223 11.4691840277777  9.27864583333334 11.07421875  C 9.98350694444443 10.6792534722223  10.5486111111111 10.1354166666666  10.9739583333333 9.44270833333337  C 11.0407986111111 9.33940972222229  11.2018229166667 8.98394097222229  11.45703125 8.37630208333337  C 11.5056423611111 8.23654513888891  11.5967881944444 8.16666666666663  11.73046875 8.16666666666663  L 13.48046875 8.16666666666663  C 13.5594618055556 8.16666666666663  13.6278211805556 8.19552951388891  13.685546875 8.25325520833337  Z M 13.8268229166667 0.756510416666629  C 13.9422743055556 0.871961805555657  14 1.00868055555566  14 1.16666666666663  L 14 5.25  C 14 5.4079861111112  13.9422743055556 5.54470486111109  13.8268229166667 5.66015625  C 13.7113715277778 5.77560763888891  13.5746527777778 5.83333333333337  13.4166666666667 5.83333333333337  L 9.33333333333334 5.83333333333337  C 9.17534722222223 5.83333333333337  9.03862847222223 5.77560763888891  8.92317708333334 5.66015625  C 8.80772569444443 5.54470486111109  8.75 5.4079861111112  8.75 5.25  C 8.75 5.09201388888891  8.80772569444443 4.95529513888891  8.92317708333334 4.83984375  L 10.1809895833333 3.58203125  C 9.28168402777777 2.74956597222229  8.22135416666666 2.33333333333337  7 2.33333333333337  C 6.18576388888891 2.33333333333337  5.42621527777777 2.53081597222229  4.72135416666666 2.92578125  C 4.01649305555557 3.32074652777771  3.45138888888891 3.86458333333337  3.02604166666666 4.55729166666663  C 2.95920138888891 4.66059027777771  2.79817708333334 5.01605902777771  2.54296875 5.62369791666663  C 2.49435763888891 5.76345486111109  2.40321180555557 5.83333333333337  2.26953125 5.83333333333337  L 0.455729166666657 5.83333333333337  C 0.376736111111086 5.83333333333337  0.308376736111086 5.80447048611109  0.250651041666657 5.74674479166663  C 0.192925347222229 5.68901909722229  0.1640625 5.62065972222229  0.1640625 5.54166666666663  L 0.1640625 5.47786458333337  C 0.559027777777771 3.84939236111109  1.37934027777777 2.529296875  2.625 1.517578125  C 3.87065972222223 0.505859375  5.32899305555557 0  7 0  C 7.88715277777777 0  8.75 0.168619791666629  9.58854166666666 0.505859375  C 10.4270833333333 0.843098958333371  11.1714409722222 1.31857638888891  11.8216145833333 1.93229166666663  L 13.0065104166667 0.756510416666629  C 13.1219618055556 0.641059027777715  13.2586805555556 0.583333333333371  13.4166666666667 0.583333333333371  C 13.5746527777778 0.583333333333371  13.7113715277778 0.641059027777715  13.8268229166667 0.756510416666629  Z " fill-rule="nonzero" fill="#333333" stroke="none" transform="matrix(1 0 0 1 933 394 )" />
  </g>
</svg>