<?xml version="1.0" encoding="utf-8"?>
<svg version="1.1" xmlns:xlink="http://www.w3.org/1999/xlink" width="12px" height="14px" xmlns="http://www.w3.org/2000/svg">
  <g transform="matrix(1 0 0 1 -298 -394 )">
    <path d="M 11.6041666666666 0.259765625  C 11.8680555555555 0.432942708333371  12 0.638020833333371  12 0.875  L 12 13.125  C 12 13.3619791666667  11.8680555555555 13.5670572916667  11.6041666666666 13.740234375  C 11.3402777777778 13.9134114583333  11.0277777777777 14  10.6666666666666 14  C 10.3055555555555 14  9.99305555555554 13.9134114583333  9.72916666666663 13.740234375  L 0.395833333333371 7.615234375  C 0.131944444444457 7.44205729166663  0 7.23697916666663  0 7  C 0 6.76302083333337  0.131944444444457 6.55794270833337  0.395833333333371 6.384765625  L 9.72916666666663 0.259765625  C 9.99305555555554 0.0865885416666288  10.3055555555555 0  10.6666666666666 0  C 11.0277777777777 0  11.3402777777778 0.0865885416666288  11.6041666666666 0.259765625  Z " fill-rule="nonzero" fill="#333333" stroke="none" transform="matrix(1 0 0 1 298 394 )" />
  </g>
</svg>