<?xml version="1.0" encoding="utf-8"?>
<svg version="1.1" xmlns:xlink="http://www.w3.org/1999/xlink" width="12px" height="15px" xmlns="http://www.w3.org/2000/svg">
  <g transform="matrix(1 0 0 1 -1452 -149 )">
    <path d="M 0.923076923076906 11.5178571428572  L 0.923076923076906 13.9285714285714  L 3 13.9285714285714  L 3 11.5178571428572  L 0.923076923076906 11.5178571428572  Z M 3.46153846153857 11.5178571428572  L 3.46153846153857 13.9285714285714  L 5.76923076923094 13.9285714285714  L 5.76923076923094 11.5178571428572  L 3.46153846153857 11.5178571428572  Z M 0.923076923076906 8.30357142857142  L 0.923076923076906 10.9821428571428  L 3 10.9821428571428  L 3 8.30357142857142  L 0.923076923076906 8.30357142857142  Z M 3.46153846153857 8.30357142857142  L 3.46153846153857 10.9821428571428  L 5.76923076923094 10.9821428571428  L 5.76923076923094 8.30357142857142  L 3.46153846153857 8.30357142857142  Z M 0.923076923076906 5.35714285714283  L 0.923076923076906 7.76785714285717  L 3 7.76785714285717  L 3 5.35714285714283  L 0.923076923076906 5.35714285714283  Z M 6.23076923076906 11.5178571428572  L 6.23076923076906 13.9285714285714  L 8.53846153846143 13.9285714285714  L 8.53846153846143 11.5178571428572  L 6.23076923076906 11.5178571428572  Z M 3.46153846153857 5.35714285714283  L 3.46153846153857 7.76785714285717  L 5.76923076923094 7.76785714285717  L 5.76923076923094 5.35714285714283  L 3.46153846153857 5.35714285714283  Z M 9 11.5178571428572  L 9 13.9285714285714  L 11.0769230769231 13.9285714285714  L 11.0769230769231 11.5178571428572  L 9 11.5178571428572  Z M 6.23076923076906 8.30357142857142  L 6.23076923076906 10.9821428571428  L 8.53846153846143 10.9821428571428  L 8.53846153846143 8.30357142857142  L 6.23076923076906 8.30357142857142  Z M 3.62379807692309 3.93833705357142  C 3.66947115384642 3.88532366071428  3.6923076923074 3.82254464285711  3.6923076923074 3.75  L 3.6923076923074 1.33928571428575  C 3.6923076923074 1.26674107142856  3.66947115384642 1.20396205357139  3.62379807692309 1.15094866071425  C 3.57812500000023 1.09793526785711  3.52403846153879 1.07142857142858  3.46153846153857 1.07142857142858  L 3 1.07142857142858  C 2.93749999999977 1.07142857142858  2.88341346153834 1.09793526785711  2.83774038461547 1.15094866071425  C 2.79206730769215 1.20396205357139  2.76923076923094 1.26674107142856  2.76923076923094 1.33928571428575  L 2.76923076923094 3.75  C 2.76923076923094 3.82254464285711  2.79206730769215 3.88532366071428  2.83774038461547 3.93833705357142  C 2.88341346153834 3.99135044642855  2.93749999999977 4.01785714285717  3 4.01785714285717  L 3.46153846153857 4.01785714285717  C 3.52403846153879 4.01785714285717  3.57812500000023 3.99135044642855  3.62379807692309 3.93833705357142  Z M 9 8.30357142857142  L 9 10.9821428571428  L 11.0769230769231 10.9821428571428  L 11.0769230769231 8.30357142857142  L 9 8.30357142857142  Z M 6.23076923076906 5.35714285714283  L 6.23076923076906 7.76785714285717  L 8.53846153846143 7.76785714285717  L 8.53846153846143 5.35714285714283  L 6.23076923076906 5.35714285714283  Z M 9 5.35714285714283  L 9 7.76785714285717  L 11.0769230769231 7.76785714285717  L 11.0769230769231 5.35714285714283  L 9 5.35714285714283  Z M 9.16225961538453 3.93833705357142  C 9.20793269230785 3.88532366071428  9.23076923076906 3.82254464285711  9.23076923076906 3.75  L 9.23076923076906 1.33928571428575  C 9.23076923076906 1.26674107142856  9.20793269230785 1.20396205357139  9.16225961538453 1.15094866071425  C 9.11658653846166 1.09793526785711  9.06250000000023 1.07142857142858  9 1.07142857142858  L 8.53846153846143 1.07142857142858  C 8.47596153846121 1.07142857142858  8.42187499999977 1.09793526785711  8.37620192307691 1.15094866071425  C 8.33052884615358 1.20396205357139  8.30769230769261 1.26674107142856  8.30769230769261 1.33928571428575  L 8.30769230769261 3.75  C 8.30769230769261 3.82254464285711  8.33052884615358 3.88532366071428  8.37620192307691 3.93833705357142  C 8.42187499999977 3.99135044642855  8.47596153846121 4.01785714285717  8.53846153846143 4.01785714285717  L 9 4.01785714285717  C 9.06250000000023 4.01785714285717  9.11658653846166 3.99135044642855  9.16225961538453 3.93833705357142  Z M 11.7259615384614 2.4609375  C 11.9086538461538 2.67299107142856  12 2.92410714285714  12 3.21428571428575  L 12 13.9285714285714  C 12 14.21875  11.9086538461538 14.4698660714286  11.7259615384614 14.6819196428572  C 11.5432692307693 14.8939732142857  11.3269230769231 15  11.0769230769231 15  L 0.923076923076906 15  C 0.673076923076906 15  0.456730769230717 14.8939732142857  0.274038461538566 14.6819196428572  C 0.0913461538461888 14.4698660714286  0 14.21875  0 13.9285714285714  L 0 3.21428571428575  C 0 2.92410714285714  0.0913461538461888 2.67299107142856  0.274038461538566 2.4609375  C 0.456730769230717 2.24888392857144  0.673076923076906 2.14285714285717  0.923076923076906 2.14285714285717  L 1.84615384615404 2.14285714285717  L 1.84615384615404 1.33928571428575  C 1.84615384615404 0.970982142857167  1.95913461538453 0.655691964285722  2.18509615384596 0.393415178571416  C 2.41105769230785 0.13113839285711  2.68269230769261 0  3 0  L 3.46153846153857 0  C 3.77884615384596 0  4.05048076923072 0.13113839285711  4.27644230769261 0.393415178571416  C 4.50240384615381 0.655691964285722  4.61538461538453 0.970982142857167  4.61538461538453 1.33928571428575  L 4.61538461538453 2.14285714285717  L 7.38461538461547 2.14285714285717  L 7.38461538461547 1.33928571428575  C 7.38461538461547 0.970982142857167  7.49759615384619 0.655691964285722  7.7235576923074 0.393415178571416  C 7.94951923076928 0.13113839285711  8.22115384615404 0  8.53846153846143 0  L 9 0  C 9.3173076923074 0  9.58894230769215 0.13113839285711  9.81490384615404 0.393415178571416  C 10.0408653846155 0.655691964285722  10.153846153846 0.970982142857167  10.153846153846 1.33928571428575  L 10.153846153846 2.14285714285717  L 11.0769230769231 2.14285714285717  C 11.3269230769231 2.14285714285717  11.5432692307693 2.24888392857144  11.7259615384614 2.4609375  Z " fill-rule="nonzero" fill="#333333" stroke="none" transform="matrix(1 0 0 1 1452 149 )" />
  </g>
</svg>