<?xml version="1.0" encoding="utf-8"?>
<svg version="1.1" xmlns:xlink="http://www.w3.org/1999/xlink" width="10px" height="4px" xmlns="http://www.w3.org/2000/svg">
  <g transform="matrix(1 0 0 1 -695 -245 )">
    <path d="M 7.96000000000004 3.94666666666666  L 7.96000000000004 2.368  L 9.93333333333339 2.368  L 9.93333333333339 3.94666666666666  L 7.96000000000004 3.94666666666666  Z M 4.01333333333332 1.57866666666666  L 4.01333333333332 0  L 5.98666666666668 0  L 5.98666666666668 1.57866666666666  L 4.01333333333332 1.57866666666666  Z M 7.96000000000004 1.57866666666666  L 7.96000000000004 0  L 9.93333333333339 0  L 9.93333333333339 1.57866666666666  L 7.96000000000004 1.57866666666666  Z M 0.057777777777801 3.94666666666666  L 0.057777777777801 2.368  L 2.03111111111116 2.368  L 2.03111111111116 3.94666666666666  L 0.057777777777801 3.94666666666666  Z M 4.01333333333332 3.94666666666666  L 4.01333333333332 2.368  L 5.98666666666668 2.368  L 5.98666666666668 3.94666666666666  L 4.01333333333332 3.94666666666666  Z M 0.057777777777801 1.57866666666666  L 0.057777777777801 0  L 2.03111111111116 0  L 2.03111111111116 1.57866666666666  L 0.057777777777801 1.57866666666666  Z " fill-rule="nonzero" fill="#d7d7d7" stroke="none" transform="matrix(1 0 0 1 695 245 )" />
  </g>
</svg>