<?xml version="1.0" encoding="utf-8"?>
<svg version="1.1" xmlns:xlink="http://www.w3.org/1999/xlink" width="17px" height="19px" xmlns="http://www.w3.org/2000/svg">
  <g transform="matrix(1 0 0 1 -1386 -833 )">
    <path d="M 16.6181640625 11.2008463541667  C 16.6882595486111 11.2791883680555  16.7233072916665 11.3719618055554  16.7233072916665 11.4791666666667  C 16.7233072916665 11.5203993055554  16.7196180555554 11.5492621527778  16.7122395833335 11.5657552083333  C 16.2400173611111 13.7758246527778  15.2513020833335 15.5673828125  13.74609375 16.9404296875  C 12.2408854166665 18.3134765625  10.4774305555554 19  8.45572916666652 19  C 7.3784722222224 19  6.33626302083348 18.7732204861113  5.3291015625 18.3196614583333  C 4.32194010416652 17.8661024305554  3.42361111111109 17.21875  2.63411458333348 16.3776041666667  L 1.20638020833348 17.9733072916667  C 1.06618923611109 18.1299913194446  0.900173611111086 18.2083333333333  0.708333333333485 18.2083333333333  C 0.516493055555429 18.2083333333333  0.350477430555429 18.1299913194446  0.210286458333485 17.9733072916667  C 0.0700954861110858 17.8166232638891  0 17.6310763888887  0 17.4166666666667  L 0 11.875  C 0 11.6605902777778  0.0700954861110858 11.4750434027778  0.210286458333485 11.318359375  C 0.350477430555429 11.1616753472222  0.516493055555429 11.0833333333333  0.708333333333485 11.0833333333333  L 5.66666666666652 11.0833333333333  C 5.85850694444457 11.0833333333333  6.02452256944457 11.1616753472222  6.16471354166652 11.318359375  C 6.30490451388891 11.4750434027778  6.375 11.6605902777778  6.375 11.875  C 6.375 12.0894097222223  6.30490451388891 12.2749565972222  6.16471354166652 12.431640625  L 4.6484375 14.1263020833333  C 5.1723090277776 14.6705729166667  5.76627604166652 15.0911458333333  6.43033854166652 15.3880208333333  C 7.09440104166652 15.6848958333333  7.78428819444457 15.8333333333333  8.5 15.8333333333333  C 9.4887152777776 15.8333333333333  10.4110243055554 15.5653211805554  11.2669270833335 15.029296875  C 12.1228298611111 14.4932725694446  12.8090277777776 13.7552083333333  13.3255208333335 12.8151041666667  C 13.4066840277776 12.6749131944446  13.6022135416665 12.1924913194446  13.912109375 11.3678385416667  C 13.9711371527776 11.1781684027778  14.0818142361111 11.0833333333333  14.244140625 11.0833333333333  L 16.369140625 11.0833333333333  C 16.4650607638889 11.0833333333333  16.5480685763889 11.1225043402778  16.6181640625 11.2008463541667  Z M 16.7897135416665 1.02669270833326  C 16.9299045138889 1.18337673611131  17 1.36892361111131  17 1.58333333333326  L 17 7.125  C 17 7.33940972222229  16.9299045138889 7.52495659722217  16.7897135416665 7.681640625  C 16.6495225694446 7.83832465277783  16.4835069444446 7.91666666666674  16.2916666666665 7.91666666666674  L 11.3333333333335 7.91666666666674  C 11.1414930555554 7.91666666666674  10.9754774305554 7.83832465277783  10.8352864583335 7.681640625  C 10.6950954861111 7.52495659722217  10.625 7.33940972222229  10.625 7.125  C 10.625 6.91059027777783  10.6950954861111 6.72504340277783  10.8352864583335 6.568359375  L 12.3626302083335 4.861328125  C 11.2706163194446 3.73155381944457  9.98307291666652 3.16666666666674  8.5 3.16666666666674  C 7.5112847222224 3.16666666666674  6.58897569444457 3.43467881944457  5.73307291666652 3.970703125  C 4.87717013888891 4.50672743055543  4.1909722222224 5.24479166666674  3.67447916666652 6.18489583333326  C 3.5933159722224 6.32508680555543  3.39778645833348 6.80750868055543  3.087890625 7.63216145833326  C 3.0288628472224 7.82183159722217  2.91818576388891 7.91666666666674  2.755859375 7.91666666666674  L 0.553385416666515 7.91666666666674  C 0.457465277777601 7.91666666666674  0.374457465277601 7.87749565972217  0.304361979166515 7.79915364583326  C 0.234266493055429 7.72081163194457  0.19921875 7.62803819444457  0.19921875 7.52083333333326  L 0.19921875 7.43424479166674  C 0.678819444444571 5.22417534722217  1.67491319444457 3.4326171875  3.1875 2.0595703125  C 4.70008680555543 0.6865234375  6.47092013888891 0  8.5 0  C 9.57725694444457 0  10.625 0.228841145833258  11.6432291666665 0.6865234375  C 12.6614583333335 1.14420572916674  13.5653211805554 1.78949652777783  14.3548177083335 2.62239583333326  L 15.7936197916665 1.02669270833326  C 15.9338107638889 0.870008680555429  16.0998263888889 0.791666666666742  16.2916666666665 0.791666666666742  C 16.4835069444446 0.791666666666742  16.6495225694446 0.870008680555429  16.7897135416665 1.02669270833326  Z " fill-rule="nonzero" fill="#333333" stroke="none" transform="matrix(1 0 0 1 1386 833 )" />
  </g>
</svg>