<?xml version="1.0" encoding="utf-8"?>
<svg version="1.1" xmlns:xlink="http://www.w3.org/1999/xlink" width="14px" height="25px" xmlns="http://www.w3.org/2000/svg">
  <g transform="matrix(1 0 0 1 -501 -831 )">
    <path d="M 3.677734375 11.7689488459139  L 13.384765625 0.234586192555641  C 13.5579427083334 0.0288088306647299  13.7037760416666 -0.0415886878769246  13.822265625 0.0233936369306777  C 13.9407552083334 0.0883759617381664  14 0.261662161225334  14 0.543252235391724  L 14 24.4567477646083  C 14 24.7383378387744  13.9407552083334 24.9116240382618  13.822265625 24.9766063630693  C 13.7037760416666 25.0415886878769  13.5579427083334 24.9711911693353  13.384765625 24.7654138074444  L 3.677734375 13.2310511540861  C 3.595703125 13.1335776668748  3.53645833333337 13.030688985929  3.5 12.9223851112498  L 3.5 23.9368891661469  C 3.5 24.2184792403134  3.41341145833337 24.462162958342  3.240234375 24.6679403202328  C 3.06705729166663 24.8737176821239  2.86197916666663 24.9766063630693  2.625 24.9766063630693  L 0.875 24.9766063630693  C 0.638020833333371 24.9766063630693  0.432942708333371 24.8737176821239  0.259765625 24.6679403202328  C 0.0865885416666288 24.462162958342  0 24.2184792403134  0 23.9368891661469  L 0 1.06311083385311  C 0 0.781520759686607  0.0865885416666288 0.537837041658013  0.259765625 0.332059679766988  C 0.432942708333371 0.126282317876077  0.638020833333371 0.0233936369306777  0.875 0.0233936369306777  L 2.625 0.0233936369306777  C 2.86197916666663 0.0233936369306777  3.06705729166663 0.126282317876077  3.240234375 0.332059679766988  C 3.41341145833337 0.537837041658013  3.5 0.781520759686607  3.5 1.06311083385311  L 3.5 12.0776148887502  C 3.53645833333337 11.9584806266031  3.595703125 11.8555919456573  3.677734375 11.7689488459139  Z " fill-rule="nonzero" fill="#333333" stroke="none" transform="matrix(1 0 0 1 501 831 )" />
  </g>
</svg>