<?xml version="1.0" encoding="utf-8"?>
<svg version="1.1" xmlns:xlink="http://www.w3.org/1999/xlink" width="16px" height="11px" xmlns="http://www.w3.org/2000/svg">
  <g transform="matrix(1 0 0 1 -692 -239 )">
    <path d="M 16 0.804320000000018  L 11.9882105263158 0.804320000000018  L 11.9882105263158 0.0228800000000149  L 10.9911578947368 0.0228800000000149  L 10.9911578947368 0.804320000000018  L 5.00884210526317 0.804320000000018  L 5.00884210526317 0.0228800000000149  L 4.01178947368419 0.0228800000000149  L 4.01178947368419 0.804320000000018  L 0 0.804320000000018  L 0 11  L 16 11  L 16 0.804320000000018  Z M 14.9883508771929 4.71856  L 14.9883508771929 10.27312  L 1.01164912280706 10.27312  L 1.01164912280706 4.71856  L 14.9883508771929 4.71856  Z M 14.9793684210526 3.93712000000002  L 14.9883508771929 4  L 1.01164912280706 4  L 1.01164912280706 1.50832  L 4.00280701754389 1.50832  L 4.00280701754389 2.3672  L 4.99985964912275 2.3672  L 4.99985964912275 1.50832  L 10.9911578947368 1.50832  L 10.9911578947368 2.3672  L 11.9882105263158 2.3672  L 11.9882105263158 1.50832  L 14.9793684210526 1.50832  L 14.9793684210526 3.93712000000002  Z " fill-rule="nonzero" fill="#d7d7d7" stroke="none" transform="matrix(1 0 0 1 692 239 )" />
  </g>
</svg>