<?xml version="1.0" encoding="utf-8"?>
<svg version="1.1" xmlns:xlink="http://www.w3.org/1999/xlink" width="14px" height="23px" xmlns="http://www.w3.org/2000/svg">
  <g transform="matrix(1 0 0 1 -1077 -830 )">
    <path d="M 10.322265625 12.1725670617593  L 0.615234375 22.7841807028491  C 0.442057291666742 22.9734958757886  0.296223958333258 23.0382615928468  0.177734375 22.9784778540237  C 0.0592447916667425 22.9186941152005  0 22.7592708116724  0 22.5002079434391  L 0 0.499792056560864  C 0 0.240729188327578  0.0592447916667425 0.0813058847992352  0.177734375 0.0215221459762915  C 0.296223958333258 -0.0382615928467658  0.442057291666742 0.0265041242114421  0.615234375 0.215819297150915  L 10.322265625 10.8274329382407  C 10.3951822916667 10.9071445900048  10.4544270833333 11.0018021764746  10.5 11.1114056976502  L 10.5 0.978061967144868  C 10.5 0.718999098911695  10.5865885416667 0.494810078325372  10.759765625 0.305494905385899  C 10.9329427083333 0.116179732446085  11.1380208333333 0.0215221459762915  11.375 0.0215221459762915  L 13.125 0.0215221459762915  C 13.3619791666667 0.0215221459762915  13.5670572916667 0.116179732446085  13.740234375 0.305494905385899  C 13.9134114583333 0.494810078325372  14 0.718999098911695  14 0.978061967144868  L 14 22.0219380328551  C 14 22.2810009010883  13.9134114583333 22.5051899216746  13.740234375 22.6945050946141  C 13.5670572916667 22.8838202675539  13.3619791666667 22.9784778540237  13.125 22.9784778540237  L 11.375 22.9784778540237  C 11.1380208333333 22.9784778540237  10.9329427083333 22.8838202675539  10.759765625 22.6945050946141  C 10.5865885416667 22.5051899216746  10.5 22.2810009010883  10.5 22.0219380328551  L 10.5 11.8885943023498  C 10.4544270833333 11.9882338670546  10.3951822916667 12.0828914535247  10.322265625 12.1725670617593  Z " fill-rule="nonzero" fill="#333333" stroke="none" transform="matrix(1 0 0 1 1077 830 )" />
  </g>
</svg>