<?xml version="1.0" encoding="utf-8"?>
<svg version="1.1" xmlns:xlink="http://www.w3.org/1999/xlink" width="14px" height="19px" xmlns="http://www.w3.org/2000/svg">
  <g transform="matrix(1 0 0 1 -621 -833 )">
    <path d="M 13.5381944444445 0.3525390625  C 13.8460648148149 0.587565104166742  14 0.865885416666742  14 1.1875  L 14 17.8125  C 14 18.1341145833334  13.8460648148149 18.4124348958334  13.5381944444445 18.6474609375  C 13.230324074074 18.8824869791666  12.8657407407406 19  12.4444444444445 19  C 12.0231481481482 19  11.6585648148149 18.8824869791666  11.3506944444445 18.6474609375  L 0.461805555555543 10.3349609375  C 0.153935185185105 10.0999348958333  0 9.82161458333326  0 9.5  C 0 9.17838541666674  0.153935185185105 8.90006510416674  0.461805555555543 8.6650390625  L 11.3506944444445 0.3525390625  C 11.6585648148149 0.117513020833258  12.0231481481482 0  12.4444444444445 0  C 12.8657407407406 0  13.230324074074 0.117513020833258  13.5381944444445 0.3525390625  Z " fill-rule="nonzero" fill="#333333" stroke="none" transform="matrix(1 0 0 1 621 833 )" />
  </g>
</svg>