<?xml version="1.0" encoding="utf-8"?>
<svg version="1.1" xmlns:xlink="http://www.w3.org/1999/xlink" width="14px" height="19px" xmlns="http://www.w3.org/2000/svg">
  <g transform="matrix(1 0 0 1 -1223 -832 )">
    <path d="M 13.5381944444446 8.6650390625  C 13.8460648148148 8.90006510416674  14 9.17838541666674  14 9.5  C 14 9.82161458333326  13.8460648148148 10.0999348958333  13.5381944444446 10.3349609375  L 2.64930555555543 18.6474609375  C 2.34143518518522 18.8824869791667  1.97685185185196 19  1.55555555555543 19  C 1.13425925925912 19  0.76967592592564 18.8824869791667  0.461805555555429 18.6474609375  C 0.153935185185219 18.4124348958333  0 18.1341145833333  0 17.8125  L 0 1.1875  C 0 0.865885416666629  0.153935185185219 0.587565104166629  0.461805555555429 0.3525390625  C 0.76967592592564 0.117513020833371  1.13425925925912 0  1.55555555555543 0  C 1.97685185185196 0  2.34143518518522 0.117513020833371  2.64930555555543 0.3525390625  L 13.5381944444446 8.6650390625  Z " fill-rule="nonzero" fill="#333333" stroke="none" transform="matrix(1 0 0 1 1223 832 )" />
  </g>
</svg>