<?xml version="1.0" encoding="utf-8"?>
<svg version="1.1" xmlns:xlink="http://www.w3.org/1999/xlink" width="13px" height="14px" xmlns="http://www.w3.org/2000/svg">
  <g transform="matrix(1 0 0 1 -896 -732 )">
    <path d="M 12.7080078125 8.25325520833337  C 12.7616102430553 8.31098090277783  12.7884114583333 8.37934027777771  12.7884114583333 8.45833333333337  C 12.7884114583333 8.48871527777771  12.7855902777777 8.50998263888891  12.7799479166667 8.52213541666663  C 12.4188368055553 10.1506076388889  11.6627604166667 11.470703125  10.51171875 12.482421875  C 9.36067708333326 13.494140625  8.01215277777771 14  6.46614583333326 14  C 5.64236111111109 14  4.84537760416674 13.8328993055557  4.0751953125 13.4986979166666  C 3.30501302083326 13.1644965277777  2.61805555555532 12.6875  2.01432291666674 12.0677083333334  L 0.922526041666742 13.2434895833334  C 0.815321180555316 13.3589409722223  0.688368055555316 13.4166666666666  0.541666666666742 13.4166666666666  C 0.394965277777715 13.4166666666666  0.268012152777715 13.3589409722223  0.160807291666742 13.2434895833334  C 0.0536024305553156 13.1280381944446  0 12.9913194444443  0 12.8333333333334  L 0 8.75  C 0 8.59201388888891  0.0536024305553156 8.45529513888891  0.160807291666742 8.33984375  C 0.268012152777715 8.22439236111109  0.394965277777715 8.16666666666663  0.541666666666742 8.16666666666663  L 4.33333333333326 8.16666666666663  C 4.48003472222229 8.16666666666663  4.60698784722229 8.22439236111109  4.71419270833326 8.33984375  C 4.82139756944468 8.45529513888891  4.875 8.59201388888891  4.875 8.75  C 4.875 8.9079861111112  4.82139756944468 9.04470486111109  4.71419270833326 9.16015625  L 3.5546875 10.4088541666666  C 3.95529513888891 10.8098958333334  4.40950520833326 11.1197916666666  4.91731770833326 11.3385416666666  C 5.42513020833326 11.5572916666666  5.95269097222229 11.6666666666666  6.5 11.6666666666666  C 7.25607638888892 11.6666666666666  7.96137152777771 11.4691840277777  8.61588541666674 11.07421875  C 9.27039930555532 10.6792534722223  9.79513888888891 10.1354166666666  10.1901041666667 9.44270833333337  C 10.2521701388889 9.33940972222229  10.4016927083333 8.98394097222229  10.638671875 8.37630208333337  C 10.6838107638889 8.23654513888891  10.7684461805553 8.16666666666663  10.892578125 8.16666666666663  L 12.517578125 8.16666666666663  C 12.5909288194447 8.16666666666663  12.6544053819447 8.19552951388891  12.7080078125 8.25325520833337  Z M 12.8391927083333 0.756510416666629  C 12.9463975694447 0.871961805555657  13 1.00868055555566  13 1.16666666666663  L 13 5.25  C 13 5.4079861111112  12.9463975694447 5.54470486111109  12.8391927083333 5.66015625  C 12.7319878472223 5.77560763888891  12.6050347222223 5.83333333333337  12.4583333333333 5.83333333333337  L 8.66666666666674 5.83333333333337  C 8.51996527777771 5.83333333333337  8.39301215277771 5.77560763888891  8.28580729166674 5.66015625  C 8.17860243055532 5.54470486111109  8.125 5.4079861111112  8.125 5.25  C 8.125 5.09201388888891  8.17860243055532 4.95529513888891  8.28580729166674 4.83984375  L 9.45377604166674 3.58203125  C 8.61870659722229 2.74956597222229  7.63411458333326 2.33333333333337  6.5 2.33333333333337  C 5.74392361111109 2.33333333333337  5.03862847222229 2.53081597222229  4.38411458333326 2.92578125  C 3.72960069444468 3.32074652777771  3.20486111111109 3.86458333333337  2.80989583333326 4.55729166666663  C 2.74782986111109 4.66059027777771  2.59830729166674 5.01605902777771  2.361328125 5.62369791666663  C 2.31618923611109 5.76345486111109  2.23155381944468 5.83333333333337  2.107421875 5.83333333333337  L 0.423177083333257 5.83333333333337  C 0.349826388888914 5.83333333333337  0.286349826388914 5.80447048611109  0.232747395833258 5.74674479166663  C 0.179144965277715 5.68901909722229  0.15234375 5.62065972222229  0.15234375 5.54166666666663  L 0.15234375 5.47786458333337  C 0.519097222222285 3.84939236111109  1.28081597222229 2.529296875  2.4375 1.517578125  C 3.59418402777771 0.505859375  4.94835069444468 0  6.5 0  C 7.32378472222229 0  8.125 0.168619791666629  8.90364583333326 0.505859375  C 9.68229166666674 0.843098958333371  10.3734809027777 1.31857638888891  10.9772135416667 1.93229166666663  L 12.0774739583333 0.756510416666629  C 12.1846788194447 0.641059027777715  12.3116319444447 0.583333333333371  12.4583333333333 0.583333333333371  C 12.6050347222223 0.583333333333371  12.7319878472223 0.641059027777715  12.8391927083333 0.756510416666629  Z " fill-rule="nonzero" fill="#333333" stroke="none" transform="matrix(1 0 0 1 896 732 )" />
  </g>
</svg>